<svg xmlns="http://www.w3.org/2000/svg" width="20" height="20"><path fill="#F3A530" fill-rule="evenodd" d="M10 20c5.523 0 10-4.477 10-10S15.523 0 10 0 0 4.477 0 10s4.477 10 10 10zm2.714-5.714v1.143a.55.55 0 0 1-.17.401.55.55 0 0 1-.401.17H7.57a.55.55 0 0 1-.401-.17.55.55 0 0 1-.17-.401v-1.143a.55.55 0 0 1 .17-.402.55.55 0 0 1 .401-.17h.572v-3.428H7.57a.55.55 0 0 1-.401-.17.55.55 0 0 1-.17-.402V8.571a.55.55 0 0 1 .17-.401A.55.55 0 0 1 7.57 8H11a.55.55 0 0 1 .402.17c.11.105.17.25.17.401v5.143h.57a.55.55 0 0 1 .403.17.55.55 0 0 1 .17.402h-.001zM11.571 4v1.714a.55.55 0 0 1-.17.402.55.55 0 0 1-.401.17H8.714a.55.55 0 0 1-.402-.17.55.55 0 0 1-.17-.402V4a.55.55 0 0 1 .17-.402.55.55 0 0 1 .402-.17H11a.55.55 0 0 1 .402.17.55.55 0 0 1 .17.402h-.001z"/></svg>