<svg width="47" height="47" xmlns="http://www.w3.org/2000/svg"><g fill="#82BE43" fill-rule="evenodd" stroke="#82BE43"><path d="M23.5 2.293c-11.693 0-21.206 9.514-21.206 21.207 0 11.693 9.513 21.207 21.206 21.207S44.707 35.193 44.707 23.5c0-11.693-9.514-21.207-21.207-21.207M23.5 46C11.094 46 1 35.907 1 23.5S11.094 1 23.5 1C35.907 1 46 11.093 46 23.5S35.907 46 23.5 46"/><path d="M23.5 6.248c-9.513 0-17.252 7.739-17.252 17.252 0 2.739 1.346 5.086 2.647 7.356.137.239.274.477.409.716 3.352 5.92 8.394 9.18 14.196 9.18 6.418 0 12.01-3.657 14.956-9.784 1.023-2.126 2.296-4.773 2.296-7.468 0-5.26-2.626-9.582-8.029-13.212l-.572-.387C29.496 8.105 26.75 6.248 23.5 6.248M23.5 42c-6.271 0-11.699-3.485-15.282-9.813-.134-.237-.27-.473-.405-.71C6.43 29.065 5 26.57 5 23.5 5 13.3 13.299 5 23.5 5c3.632 0 6.67 2.055 9.35 3.868l.57.384C39.193 13.132 42 17.792 42 23.5c0 2.98-1.341 5.768-2.42 8.01C36.422 38.077 30.41 42 23.5 42"/><path d="M19.422 15.406c-.6 0-.838.121-.88.186-.272.421-.679.878-1.109 1.36-.713.8-1.6 1.796-1.65 2.472a7.549 7.549 0 0 1-.175 1.07c-.197.915-.367 1.705.457 3.226.578 1.069.909 2.172 1.174 3.058.202.673.506 1.69.754 1.77.609.199 1.083.661 1.542 1.108.51.499.993.969 1.55.996.603.028 1.218.26 1.813.484.599.225 1.218.458 1.757.458.344 0 .63-.095.898-.298.352-.266.72-.51 1.076-.745 1.305-.862 2.537-1.677 3.19-3.674.26-.798.605-1.515.91-2.147.823-1.713 1.32-2.747.118-4.255-1.283-1.61-2.175-1.892-3.208-2.217-.476-.15-.968-.306-1.514-.586a14.475 14.475 0 0 1-1.59-.96c-.618-.416-1.027-.69-1.694-.796a24.282 24.282 0 0 1-.857-.159c-.795-.156-1.786-.351-2.562-.351M24.655 33c-.808 0-1.588-.294-2.277-.553-.511-.192-.993-.374-1.363-.392-1.114-.052-1.883-.802-2.5-1.405-.357-.347-.694-.675-.98-.768-.963-.314-1.28-1.371-1.681-2.71-.26-.869-.555-1.853-1.066-2.796-1.066-1.969-.814-3.14-.592-4.171.065-.303.126-.59.148-.881.084-1.144 1.102-2.286 2-3.294.392-.44.763-.857.977-1.188C17.866 14 19.037 14 19.422 14c.92 0 1.989.21 2.848.379.3.059.582.114.802.15.989.155 1.588.558 2.282 1.025.394.265.84.565 1.442.874.437.224.85.354 1.288.492 1.154.364 2.347.74 3.903 2.693 1.743 2.187.881 3.98.048 5.713-.3.623-.609 1.267-.841 1.978-.804 2.46-2.372 3.497-3.754 4.41-.354.234-.687.454-1.003.693a2.89 2.89 0 0 1-1.782.593"/><path d="M22.216 24.975c.292.023.554.122.785.21.127.047.295.11.384.122.126-.094.257-.181.39-.27.44-.292.732-.486.902-1.006.105-.323.236-.599.353-.841.304-.635.294-.682.112-.91-.343-.434-.525-.491-.853-.595-.176-.056-.395-.125-.636-.25-.275-.14-.472-.274-.63-.381-.213-.143-.262-.173-.357-.188a9.726 9.726 0 0 1-.33-.06 5.43 5.43 0 0 0-.748-.114c-.091.115-.193.23-.299.35-.138.155-.391.44-.444.57-.014.165-.045.306-.072.431-.06.285-.086.403.106.76.235.435.363.863.465 1.206.033.108.073.243.106.336.235.124.412.298.56.444.063.06.154.15.206.186M23.411 27c-.402 0-.752-.132-1.032-.238a2.295 2.295 0 0 0-.305-.102c-.625-.03-1.022-.419-1.285-.676a2.74 2.74 0 0 0-.16-.149c-.607-.224-.786-.823-.944-1.352-.089-.299-.18-.607-.334-.892-.483-.895-.354-1.496-.27-1.894.02-.093.038-.172.042-.237.045-.607.479-1.096.861-1.528.114-.127.243-.273.294-.353.17-.264.528-.579 1.264-.579.389 0 .803.082 1.136.147.1.02.19.039.264.05.488.077.793.284 1.063.466.132.09.27.182.452.276.11.057.223.092.365.137.555.176 1.066.386 1.686 1.167.85 1.07.408 1.991.087 2.664-.103.215-.2.419-.272.637-.35 1.078-1.06 1.549-1.578 1.893-.11.074-.221.146-.326.226A1.628 1.628 0 0 1 23.41 27"/><path d="M23.105 10.148c-3.55 0-6.803 1.077-9.16 3.031-2.486 2.061-3.8 4.915-3.8 8.253 0 1.825.765 3.108 1.65 4.595.186.312.379.635.568.97.163.289.326.582.49.877 2.14 3.854 4.351 7.839 10.252 7.839.429 0 .879.036 1.314.07.422.034.858.069 1.259.069.419 0 .756-.039 1.03-.117 3.79-1.082 6.141-4.551 7.446-7.271.758-1.58 1.7-3.544 1.7-5.533 0-3.496-2.336-6.77-7.144-10.009a27.344 27.344 0 0 1-1.368-1c-1.348-1.03-2.321-1.774-4.237-1.774M25.678 37c-.446 0-.905-.036-1.35-.072-.431-.034-.84-.066-1.223-.066-6.574 0-9.06-4.478-11.253-8.43-.163-.292-.324-.583-.486-.869a46.038 46.038 0 0 0-.554-.947C9.88 25.05 9 23.573 9 21.432c0-3.692 1.457-6.852 4.215-9.138C15.777 10.17 19.289 9 23.105 9c2.302 0 3.52.931 4.931 2.01.41.313.835.637 1.313.96C34.497 15.437 37 19.022 37 22.93c0 2.252-1.006 4.348-1.814 6.032-1.406 2.932-3.965 6.679-8.164 7.878-.378.107-.818.16-1.344.16"/></g></svg>