<?xml version="1.0" encoding="UTF-8"?>
<svg width="200px" height="60px" viewBox="0 0 200 60" version="1.1" xmlns="http://www.w3.org/2000/svg" xmlns:xlink="http://www.w3.org/1999/xlink">
    <!-- Generator: Sketch 50.2 (55047) - http://www.bohemiancoding.com/sketch -->
    <title>logo</title>
    <desc>Created with Sketch.</desc>
    <defs></defs>
    <g id="Styleguide" stroke="none" stroke-width="1" fill="none" fill-rule="evenodd">
        <g id="Logo" transform="translate(-10.000000, -9.000000)" fill-rule="nonzero">
            <g id="logo" transform="translate(10.000000, 9.000000)">
                <path d="M40.523753,25.5517667 C39.3298251,26.763815 38.7331967,28.2221654 38.7331967,29.9274892 C38.7331967,31.6328129 39.3298251,33.0831099 40.523753,34.2763666 C41.7176809,35.4702946 43.1673068,36.066923 44.8733016,36.066923 C46.5786253,36.066923 47.9823295,35.4702946 49.1930355,34.2763666 C50.4044126,33.0831099 51.0097656,31.6328129 51.0097656,29.9274892 L51.0097656,10.4095419 C51.0097656,9.42030654 51.3339181,8.60220752 51.9828942,7.95390264 C52.6298567,7.30626888 53.4486269,7 54.4385334,7 C55.461325,7 56.2968732,7.29687316 56.9451781,7.92772884 C57.5928118,8.55925564 57.9722816,9.38607926 57.9722816,10.4095419 L57.9722816,29.9274892 C57.9722816,33.5783986 56.7011745,36.6642226 54.1596315,39.1876453 C51.6194306,41.7137525 48.5228688,43 44.8733016,43 C41.2230632,43 38.1358971,41.7137525 35.6118033,39.1876453 C33.0877094,36.6642226 31.8259981,33.5783986 31.8259981,29.9274892 C31.8259981,26.2430235 33.079656,23.1390793 35.5863005,20.6149855 C38.0936163,18.0908916 41.188836,16.827838 44.8733016,16.827838 C45.8967643,16.827838 46.7323124,17.1526616 47.3806173,17.8002954 C48.0282511,18.4492713 48.3530747,19.2841485 48.3530747,20.3082822 C48.3530747,21.3310739 48.0282511,22.1578974 47.3806173,22.7894242 C46.7323124,23.420951 45.8967643,23.7357077 44.8733016,23.7357077 C43.1673068,23.7357077 41.7176809,24.3417319 40.523753,25.5517667 Z" id="Fill-37" fill="#2F3231"></path>
                <path d="M76.2413563,32.5546193 C75.490251,33.2713788 74.6881324,33.6290874 73.8356716,33.6290874 C72.8805127,33.6290874 72.0522161,33.2713788 71.3534668,32.5546193 C70.6540461,31.838531 70.3043358,31.0043251 70.3043358,30.0486458 C70.3043358,29.1949773 70.6795529,28.3936563 71.4306581,27.6426696 L75.115034,24.0098805 C74.6713516,23.9420971 74.2276693,23.9071986 73.7839869,23.9071986 C72.0777228,23.9071986 70.6285394,24.5051693 69.434423,25.698426 C68.2396355,26.8936963 67.6435841,28.342651 67.6435841,30.0486458 C67.6435841,31.7539696 68.2396355,33.2116488 69.434423,34.4223548 C70.6285394,35.6337319 72.0777228,36.2390849 73.7839869,36.2390849 L78.5774658,36.2390849 C79.6004188,36.2390849 80.4273729,36.555184 81.0589995,37.1853685 C81.6899547,37.8168953 82,38.6465355 82,39.6699982 C82,40.6934609 81.6899547,41.5275347 81.0589995,42.1744974 C80.4273729,42.8207889 79.6004188,43.1456124 78.5774658,43.1456124 L73.7839869,43.1456124 C70.099611,43.1456124 67.0039028,41.8845722 64.4968626,39.3598072 C61.9884798,36.8357134 60.7352952,33.7317692 60.7352952,30.0486458 C60.7352952,26.3641802 61.9884798,23.2676183 64.4968626,20.7603026 C67.0039028,18.2543291 70.099611,17 73.7839869,17 C77.5032668,17 80.6587143,18.3301659 83.2516719,20.9911689 C83.9343118,21.7072572 84.2752961,22.4924712 84.2752961,23.3447975 C84.2752961,24.4695998 83.7812716,25.408501 82.7912089,26.1594877 L76.2413563,32.5546193 Z" id="Fill-38" fill="#2F3231"></path>
                <path d="M112.415695,36.1384164 C113.572767,36.1384164 114.546614,35.7364137 115.332537,34.9344218 C116.115777,34.1337719 116.508402,33.1525899 116.508402,31.9928893 L116.508402,20.4287678 C116.508402,19.4053051 116.833242,18.5791526 117.479565,17.9469547 C118.12656,17.3160989 118.964162,17 119.987003,17 C121.011187,17 121.83738,17.3160989 122.470279,17.9469547 C123.101166,18.5791526 123.414596,19.4053051 123.414596,20.4287678 L123.414596,31.9928893 C123.414596,35.0968335 122.358868,37.7148846 120.244055,39.8457003 C118.12656,41.9798716 115.517776,43.0442728 112.415695,43.0442728 C109.68409,43.0442728 107.296118,42.1751685 105.249764,40.4356175 C103.170523,42.1751685 100.779866,43.0442728 98.0865176,43.0442728 C94.9488642,43.0442728 92.3212892,41.987254 90.2064772,39.8718741 C88.0909941,37.7578365 87.0345948,35.1310607 87.0345948,31.9928893 L87.0345948,20.4287678 C87.0345948,18.1435937 88.1936809,17 90.5138666,17 C91.5380504,17 92.3649143,17.3160989 92.9951296,17.9469547 C93.625345,18.5791526 93.9421305,19.4053051 93.9421305,20.4287678 L93.9421305,31.9928893 C93.9421305,33.1525899 94.3434817,34.1337719 95.1455129,34.9344218 C95.9448595,35.7364137 96.9274316,36.1384164 98.0865176,36.1384164 C99.2469461,36.1384164 100.226162,35.7364137 101.028194,34.9344218 C101.830225,34.1337719 102.231576,33.1525899 102.231576,31.9928893 L102.231576,20.4287678 C102.231576,19.4053051 102.545677,18.5791526 103.178577,17.9469547 C103.809463,17.3160989 104.635656,17 105.65984,17 C107.978683,17 109.138441,18.1435937 109.138441,20.4287678 L109.138441,34.5491971 C109.959935,35.6082293 111.04855,36.1384164 112.415695,36.1384164 Z" id="Fill-39" fill="#2F3231"></path>
                <path d="M141.733359,32.5546193 C140.982297,33.2713788 140.180224,33.6290874 139.329153,33.6290874 C138.372707,33.6290874 137.545129,33.2713788 136.846419,32.5546193 C136.147038,31.838531 135.797348,31.0043251 135.797348,30.0486458 C135.797348,29.1949773 136.172544,28.3936563 136.923607,27.6426696 L140.607101,24.0098805 C140.163443,23.9420971 139.720458,23.9071986 139.276801,23.9071986 C137.569962,23.9071986 136.120863,24.5051693 134.926814,25.698426 C133.733436,26.8936963 133.135406,28.342651 133.135406,30.0486458 C133.135406,31.7539696 133.733436,33.2116488 134.926814,34.4223548 C136.120863,35.6337319 137.569962,36.2390849 139.276801,36.2390849 L143.577631,36.2390849 C144.600525,36.2390849 145.426761,36.555184 146.059695,37.1853685 C146.689271,37.8168953 147,38.6430478 147,39.6665104 C147,40.6899732 146.689271,41.5275347 146.059695,42.1744974 C145.426761,42.8207889 144.600525,43.1456124 143.577631,43.1456124 L139.276801,43.1456124 C135.592635,43.1456124 132.497103,41.8845722 129.988864,39.3598072 C127.481295,36.8357134 126.227511,33.7317692 126.227511,30.0486458 C126.227511,26.3641802 127.481295,23.2676183 129.988864,20.7603026 C132.497103,18.2543291 135.592635,17 139.276801,17 C142.994526,17 146.151136,18.3301659 148.743275,20.9911689 C149.425204,21.7072572 149.767512,22.4924712 149.767512,23.3447975 C149.767512,24.4695998 149.272844,25.408501 148.283509,26.1594877 L141.733359,32.5546193 Z" id="Fill-40" fill="#2F3231"></path>
                <path d="M159.997925,39.5990648 C159.997925,40.6238697 159.674461,41.4513645 159.026193,42.0822201 C158.377925,42.7124047 157.522062,43 156.5,43 C155.476596,43 154.668168,42.7124047 154.03802,42.0822201 C153.406528,41.4513645 153,40.6238697 153,39.5990648 L153,28.0010493 C153,24.8971052 154.15613,22.2877787 156.288166,20.1730699 C158.420875,18.0583611 161.038777,17 164.142545,17 C165.131724,17 165.950447,17.3248237 166.598715,17.9724573 C167.246312,18.6207622 167.571118,19.4388612 167.571118,20.4287678 C167.571118,22.5441477 166.395377,23.7031772 164.039869,23.9071986 C162.880234,24.0098805 161.917899,24.4279901 161.149506,25.1615277 C160.382456,25.894394 159.997925,26.8420198 159.997925,28.0010493 L159.997925,39.5990648 Z" id="Fill-41" fill="#2F3231"></path>
                <path d="M188.817347,39.9821034 C186.700624,42.1129192 184.135736,43.3221345 181.031791,43.3221345 C177.894291,43.3221345 175.267516,42.2644445 173.152135,40.1483935 C171.036756,38.0343558 170,35.4075801 170,32.2680664 L170,14.4840458 C170,13.4612543 170.294494,12.625035 170.926691,11.9774012 C171.556204,11.3304386 172.475866,11 173.5,11 C174.522793,11 175.368862,11.3304386 176.017167,11.9774012 C176.6648,12.625035 177,13.4612543 177,14.4840458 L177,17 L188.395654,17 C189.417775,17 190.245269,17.5531706 190.876796,18.1846973 C191.50698,18.8155531 191.82308,19.6423766 191.82308,20.6658393 C191.82308,22.9859117 190.680157,24 188.395654,24 L177,24 L177,32.2680664 C177,33.4297805 177.288267,34.4109624 178.090259,35.2109412 C178.890909,36.0129331 179.87142,36.4135936 181.031791,36.4135936 C182.191492,36.4135936 183.119511,35.8708035 183.904055,35.0688115 C184.688597,34.2688327 185,33.0570373 185,31.8953232 L185,31.4362751 C185,30.4470397 185.414082,29.6275984 186.079164,28.9799647 C186.744919,28.3323309 187.510094,28 188.5,28 C189.487893,28 190.368312,28.3323309 191.015945,28.9799647 C191.66425,29.6275984 192,30.4470397 192,31.4362751 L192,31.8953232 C192,35.0006097 190.931384,37.8499454 188.817347,39.9821034 Z" id="Fill-42" fill="#2F3231"></path>
                <path d="M31.057329,49.0011292 L32,49 C34.209139,49 36,50.790861 36,53 C36,55.209139 34.209139,57 32,57 L31.057329,57.0021973 C27.2821997,57.0021973 24.6361592,55.7298788 22.0928717,53.1879405 C19.5489094,50.6419544 18,47.9606525 18,44.1868724 L18,13.0053844 C18,11.6507634 17.4337947,10.4816606 16.4704486,9.49740156 C15.5064279,8.5124679 14.3532719,8 13,8 C11.6042276,8 10.4185035,8.50234871 9.4551574,9.4663694 C8.49113671,10.4317393 8,11.6109612 8,13.0053844 L8,39.8745301 C8,41.1056973 7.61886326,42.0987263 6.83968629,42.8590141 C6.06050931,43.6172781 5.23116708,43.9977593 4,43.9977593 C2.76950753,43.9977593 1.89768383,43.6172781 1.13941983,42.8590141 C0.379132,42.0987263 0,41.1056973 0,39.8745301 L0,13.2925567 C0,9.55925344 0.769944197,6.41083877 3.3348194,3.84596357 C5.89767076,1.28176299 9.26019451,0 12.9941724,0 C16.4798931,0 19.3440391,1.22037329 22.0114553,3.66179447 C24.6775223,6.10321566 26,9.06292936 26,12.5499992 L26,44.1911278 C26,45.5835272 26.5549678,46.6142322 27.5189885,47.5802767 C28.4823346,48.5429482 29.6622312,49.0011292 31.057329,49.0011292 Z" id="Combined-Shape" fill="#82BE43"></path>
                <path d="M44.1129192,52.5187089 C43.796149,52.2838158 43.4203202,52.0952303 43.0089217,52.0952303 C42.1867959,52.0952303 41.5411756,52.7294415 41.5411756,53.5629764 C41.5411756,54.433423 42.1639778,55.044145 43.0444912,55.044145 C43.4203202,55.044145 43.8317186,54.891129 44.1129192,54.6327466 L44.1129192,56.4420944 C43.6438041,56.6763163 43.1270394,56.7830248 42.6102746,56.7830248 C40.8250872,56.7830248 39.3331807,55.4542012 39.3331807,53.6341154 C39.3331807,51.6972543 40.813007,50.3570215 42.7042319,50.3570215 C43.1975072,50.3570215 43.6907827,50.474468 44.1129192,50.7093611 L44.1129192,52.5187089" id="Fill-44" fill="#2F3231"></path>
                <path d="M47.2484061,53.5757278 C47.2484061,54.3381235 47.7530907,54.9266985 48.622195,54.9266985 C49.4919705,54.9266985 49.9973262,54.3381235 49.9973262,53.5757278 C49.9973262,52.8348079 49.4919705,52.2133479 48.622195,52.2133479 C47.7530907,52.2133479 47.2484061,52.8348079 47.2484061,53.5757278 Z M52.2516286,53.5757278 C52.2516286,55.6192974 50.5603984,56.7830248 48.622195,56.7830248 C46.696743,56.7830248 44.9934326,55.6313777 44.9934326,53.5757278 C44.9934326,51.5200778 46.6846627,50.3570215 48.622195,50.3570215 C50.5603984,50.3570215 52.2516286,51.5200778 52.2516286,53.5757278 Z" id="Fill-45" fill="#2F3231"></path>
                <path d="M55.3522171,51.3314922 L55.3757065,51.3314922 C55.8696531,50.6039948 56.4682948,50.3570215 57.3018296,50.3570215 C58.9225918,50.3570215 59.5688834,51.3791419 59.5688834,52.8596395 L59.5688834,56.5816879 L57.4313563,56.5816879 L57.4313563,53.6455245 C57.4313563,53.0710432 57.5246425,52.0596608 56.4682948,52.0596608 C55.5991904,52.0596608 55.3522171,52.7066234 55.3522171,53.4582813 L55.3522171,56.5816879 L53.2146902,56.5816879 L53.2146902,50.5563451 L55.3522171,50.5563451 L55.3522171,51.3314922" id="Fill-46" fill="#2F3231"></path>
                <path d="M64.9593439,52.1079816 C64.6298224,51.9314762 64.1727876,51.8140297 63.8083678,51.8140297 C63.5613945,51.8140297 63.138587,51.919396 63.138587,52.224757 C63.138587,52.6354843 63.8083678,52.6952142 64.1016486,52.7522598 C65.1002797,52.9515832 65.8519376,53.4220406 65.8519376,54.5387893 C65.8519376,56.123982 64.4070096,56.7830248 63.0097313,56.7830248 C62.152036,56.7830248 61.3064209,56.5347094 60.5782525,56.0897548 L61.3533996,54.597177 C61.7876162,54.9032091 62.5164558,55.2085701 63.0446297,55.2085701 C63.3150923,55.2085701 63.7144105,55.0790434 63.7144105,54.7501931 C63.7144105,54.2810781 63.0446297,54.2569176 62.3748488,54.0804123 C61.7057392,53.904578 61.0359584,53.5757278 61.0359584,52.4952197 C61.0359584,51.0153932 62.3748488,50.3570215 63.6909213,50.3570215 C64.3721111,50.3570215 65.0533011,50.4637301 65.6761033,50.7442596 L64.9593439,52.1079816" id="Fill-47" fill="#2F3231"></path>
                <polyline id="Fill-48" fill="#2F3231" points="69.3397641 56.5816879 67.2022371 56.5816879 67.2022371 52.3187142 66.5089669 52.3187142 66.5089669 50.5563451 67.2022371 50.5563451 67.2022371 48.7476684 69.3397641 48.7476684 69.3397641 50.5563451 70.5491279 50.5563451 70.5491279 52.3187142 69.3397641 52.3187142 69.3397641 56.5816879"></polyline>
                <path d="M73.3678447,51.5442383 L73.3906629,51.5442383 C73.8020613,50.8033184 74.5074117,50.474468 75.3409466,50.474468 L75.7516739,50.474468 L75.7516739,52.530118 C75.4583931,52.3650217 75.1771925,52.3307944 74.847,52.3307944 C73.6611255,52.3307944 73.3678447,53.1166796 73.3678447,54.1508802 L73.3678447,56.5816879 L71.2303178,56.5816879 L71.2303178,50.5563451 L73.3678447,50.5563451 L73.3678447,51.5442383" id="Fill-49" fill="#2F3231"></path>
                <path d="M78.6522677,50.5563451 L78.6522677,53.7763936 C78.6522677,54.5387893 78.8408533,55.0790434 79.7213668,55.0790434 C80.6025514,55.0790434 80.7897948,54.5387893 80.7897948,53.7763936 L80.7897948,50.5563451 L82.9279928,50.5563451 L82.9279928,54.1851075 C82.9279928,56.1716317 81.5300434,56.7830248 79.7213668,56.7830248 C77.9126902,56.7830248 76.5140697,56.1716317 76.5140697,54.1851075 L76.5140697,50.5563451 L78.6522677,50.5563451" id="Fill-50" fill="#2F3231"></path>
                <path d="M88.6352233,52.5187089 C88.3184533,52.2838158 87.9426243,52.0952303 87.5305548,52.0952303 C86.7091002,52.0952303 86.0628086,52.7294415 86.0628086,53.5629764 C86.0628086,54.433423 86.6856108,55.044145 87.5667954,55.044145 C87.9426243,55.044145 88.3533517,54.891129 88.6352233,54.6327466 L88.6352233,56.4420944 C88.1654372,56.6763163 87.6493436,56.7830248 87.1319077,56.7830248 C85.3467203,56.7830248 83.8548137,55.4542012 83.8548137,53.6341154 C83.8548137,51.6972543 85.3353113,50.3570215 87.2258649,50.3570215 C87.7191404,50.3570215 88.2124159,50.474468 88.6352233,50.7093611 L88.6352233,52.5187089" id="Fill-51" fill="#2F3231"></path>
                <polyline id="Fill-52" fill="#2F3231" points="92.2988842 56.5816879 90.1613572 56.5816879 90.1613572 52.3187142 89.4687582 52.3187142 89.4687582 50.5563451 90.1613572 50.5563451 90.1613572 48.7476684 92.2988842 48.7476684 92.2988842 50.5563451 93.5095902 50.5563451 93.5095902 52.3187142 92.2988842 52.3187142 92.2988842 56.5816879"></polyline>
                <path d="M94.190109,56.5816879 L96.3262937,56.5816879 L96.3262937,50.5563451 L94.190109,50.5563451 L94.190109,56.5816879 Z M96.4564916,48.2429838 C96.4564916,48.9000133 95.9155663,49.4409385 95.2578657,49.4409385 C94.6008363,49.4409385 94.0605823,48.9000133 94.0605823,48.2429838 C94.0605823,47.5846121 94.6008363,47.0450291 95.2578657,47.0450291 C95.9155663,47.0450291 96.4564916,47.5846121 96.4564916,48.2429838 Z" id="Fill-53" fill="#2F3231"></path>
                <path d="M99.5429865,53.5757278 C99.5429865,54.3381235 100.049684,54.9266985 100.918789,54.9266985 C101.787893,54.9266985 102.292578,54.3381235 102.292578,53.5757278 C102.292578,52.8348079 101.787893,52.2133479 100.918789,52.2133479 C100.049684,52.2133479 99.5429865,52.8348079 99.5429865,53.5757278 Z M104.547551,53.5757278 C104.547551,55.6192974 102.856321,56.7830248 100.918789,56.7830248 C98.9919945,56.7830248 97.2886842,55.6313777 97.2886842,53.5757278 C97.2886842,51.5200778 98.9799143,50.3570215 100.918789,50.3570215 C102.856321,50.3570215 104.547551,51.5200778 104.547551,53.5757278 Z" id="Fill-54" fill="#2F3231"></path>
                <path d="M107.646798,51.3314922 L107.6723,51.3314922 C108.164233,50.6039948 108.763546,50.3570215 109.598423,50.3570215 C111.219186,50.3570215 111.864806,51.3791419 111.864806,52.8596395 L111.864806,56.5816879 L109.725937,56.5816879 L109.725937,53.6455245 C109.725937,53.0710432 109.820565,52.0596608 108.763546,52.0596608 C107.894442,52.0596608 107.646798,52.7066234 107.646798,53.4582813 L107.646798,56.5816879 L105.511284,56.5816879 L105.511284,50.5563451 L107.646798,50.5563451 L107.646798,51.3314922" id="Fill-55" fill="#2F3231"></path>
                <path d="M121.506831,52.6952142 C121.401465,52.1193907 120.87262,51.7435618 120.296796,51.7435618 C119.674665,51.7435618 119.1579,52.0724121 119.028374,52.6952142 L121.506831,52.6952142 Z M119.945128,49.6644225 L118.992804,48.9711524 L120.648464,46.9517431 L121.953128,47.8899731 L119.945128,49.6644225 Z M123.492014,53.9287385 L118.992804,53.9287385 C118.992804,54.7965006 119.45051,55.2676291 120.332366,55.2676291 C120.790743,55.2676291 121.119593,55.1146129 121.353815,54.7146235 L123.408794,54.7146235 C123.245711,55.4186316 122.822232,55.9374098 122.269898,56.276998 C121.718235,56.6179286 121.036374,56.7830248 120.343104,56.7830248 C118.347184,56.7830248 116.854606,55.654867 116.854606,53.5757278 C116.854606,51.5677275 118.230408,50.3570215 120.190759,50.3570215 C122.281978,50.3570215 123.492014,51.6489335 123.492014,53.7045833 L123.492014,53.9287385 Z" id="Fill-56" fill="#2F3231"></path>
                <path d="M128.811335,52.5187089 C128.495236,52.2838158 128.118064,52.0952303 127.707337,52.0952303 C126.885211,52.0952303 126.240263,52.7294415 126.240263,53.5629764 C126.240263,54.433423 126.861722,55.044145 127.743578,55.044145 C128.118064,55.044145 128.529463,54.891129 128.811335,54.6327466 L128.811335,56.4420944 C128.34222,56.6763163 127.825455,56.7830248 127.307348,56.7830248 C125.521489,56.7830248 124.030925,55.4542012 124.030925,53.6341154 C124.030925,51.6972543 125.511423,50.3570215 127.401976,50.3570215 C127.895923,50.3570215 128.388527,50.474468 128.811335,50.7093611 L128.811335,52.5187089" id="Fill-57" fill="#2F3231"></path>
                <path d="M131.94615,53.5757278 C131.94615,54.3381235 132.452178,54.9266985 133.321282,54.9266985 C134.191057,54.9266985 134.695741,54.3381235 134.695741,53.5757278 C134.695741,52.8348079 134.191057,52.2133479 133.321282,52.2133479 C132.452178,52.2133479 131.94615,52.8348079 131.94615,53.5757278 Z M136.951386,53.5757278 C136.951386,55.6192974 135.258814,56.7830248 133.321282,56.7830248 C131.395159,56.7830248 129.691177,55.6313777 129.691177,53.5757278 C129.691177,51.5200778 131.383078,50.3570215 133.321282,50.3570215 C135.258814,50.3570215 136.951386,51.5200778 136.951386,53.5757278 Z" id="Fill-58" fill="#2F3231"></path>
                <polygon id="Fill-59" fill="#2F3231" points="137.912435 56.5816879 140.049291 56.5816879 140.049291 46.8329543 137.912435 46.8329543"></polygon>
                <path d="M143.267997,53.5757278 C143.267997,54.3381235 143.773352,54.9266985 144.642457,54.9266985 C145.511561,54.9266985 146.016245,54.3381235 146.016245,53.5757278 C146.016245,52.8348079 145.511561,52.2133479 144.642457,52.2133479 C143.773352,52.2133479 143.267997,52.8348079 143.267997,53.5757278 Z M148.27189,53.5757278 C148.27189,55.6192974 146.579317,56.7830248 144.642457,56.7830248 C142.715662,56.7830248 141.012352,55.6313777 141.012352,53.5757278 C141.012352,51.5200778 142.703582,50.3570215 144.642457,50.3570215 C146.579317,50.3570215 148.27189,51.5200778 148.27189,53.5757278 Z" id="Fill-60" fill="#2F3231"></path>
                <path d="M151.030205,53.528078 C151.030205,54.291816 151.534891,54.8783776 152.403995,54.8783776 C153.273099,54.8783776 153.777783,54.291816 153.777783,53.528078 C153.777783,52.7885004 153.273099,52.1663693 152.403995,52.1663693 C151.534891,52.1663693 151.030205,52.7885004 151.030205,53.528078 Z M155.846185,55.9944553 C155.846185,58.5568032 154.577091,59.5896615 152.357687,59.5896615 C150.971148,59.5896615 149.11482,58.8735732 148.927577,57.2877095 L151.324158,57.2877095 C151.381875,57.497771 151.534891,57.650787 151.723476,57.7460865 C151.910719,57.8393725 152.134203,57.88568 152.332856,57.88568 C153.484503,57.88568 153.707987,57.1353644 153.707987,56.1602227 L153.707987,55.8776799 C153.155652,56.4300142 152.591909,56.6991345 151.792602,56.6991345 C150.031575,56.6991345 148.82154,55.3615862 148.82154,53.6233775 C148.82154,51.8603372 150.066473,50.3570215 151.910719,50.3570215 C152.615399,50.3570215 153.26169,50.5919146 153.685168,51.1925698 L153.707987,51.1925698 L153.707987,50.5563451 L155.846185,50.5563451 L155.846185,55.9944553 Z" id="Fill-61" fill="#2F3231"></path>
                <path d="M157.184405,56.5816879 L159.320589,56.5816879 L159.320589,50.5563451 L157.184405,50.5563451 L157.184405,56.5816879 Z M159.450787,48.2429838 C159.450787,48.9000133 158.909862,49.4409385 158.252832,49.4409385 C157.595132,49.4409385 157.054878,48.9000133 157.054878,48.2429838 C157.054878,47.5846121 157.595132,47.0450291 158.252832,47.0450291 C158.909862,47.0450291 159.450787,47.5846121 159.450787,48.2429838 Z" id="Fill-62" fill="#2F3231"></path>
                <path d="M162.586945,53.5757278 C162.586945,54.3381235 163.09163,54.9266985 163.960734,54.9266985 C164.830509,54.9266985 165.334523,54.3381235 165.334523,53.5757278 C165.334523,52.8348079 164.830509,52.2133479 163.960734,52.2133479 C163.09163,52.2133479 162.586945,52.8348079 162.586945,53.5757278 Z M167.402925,59.5896615 L165.264726,59.5896615 L165.264726,56.0065355 C164.818429,56.5347094 164.09026,56.7830248 163.397662,56.7830248 C161.600394,56.7830248 160.378279,55.3260167 160.378279,53.5884791 C160.378279,51.8717463 161.634622,50.3570215 163.42048,50.3570215 C164.126502,50.3570215 164.864737,50.6382221 165.241908,51.2388773 L165.264726,51.2388773 L165.264726,50.5563451 L167.402925,50.5563451 L167.402925,59.5896615 Z" id="Fill-63" fill="#2F3231"></path>
                <path d="M170.843101,50.5563451 L170.843101,53.7763936 C170.843101,54.5387893 171.030344,55.0790434 171.911529,55.0790434 C172.793384,55.0790434 172.981299,54.5387893 172.981299,53.7763936 L172.981299,50.5563451 L175.118156,50.5563451 L175.118156,54.1851075 C175.118156,56.1716317 173.721548,56.7830248 171.911529,56.7830248 C170.102852,56.7830248 168.706245,56.1716317 168.706245,54.1851075 L168.706245,50.5563451 L170.843101,50.5563451" id="Fill-64" fill="#2F3231"></path>
                <path d="M180.685792,52.6952142 C180.579083,52.1193907 180.050909,51.7435618 179.475757,51.7435618 C178.852955,51.7435618 178.33619,52.0724121 178.206664,52.6952142 L180.685792,52.6952142 Z M182.670974,53.9287385 L178.170422,53.9287385 C178.170422,54.7965006 178.629471,55.2676291 179.511327,55.2676291 C179.969033,55.2676291 180.297882,55.1146129 180.532776,54.7146235 L182.587755,54.7146235 C182.423329,55.4186316 182.000522,55.9374098 181.448188,56.276998 C180.897196,56.6179286 180.214664,56.7830248 179.522064,56.7830248 C177.526145,56.7830248 176.033567,55.654867 176.033567,53.5757278 C176.033567,51.5677275 177.408698,50.3570215 179.369048,50.3570215 C181.460939,50.3570215 182.670974,51.6489335 182.670974,53.7045833 L182.670974,53.9287385 Z" id="Fill-65" fill="#2F3231"></path>
                <path d="M200,13 C200,17.9701176 195.97153,22 191.000001,22 C186.029882,22 182,17.9701176 182,13 C182,8.02988235 186.029882,4 191.000001,4 C195.97153,4 200,8.02988235 200,13" id="Fill-66" fill="#82BE43"></path>
                <path d="M187.606413,12.5962555 C187.403062,12.4902181 187.203739,12.4371994 187.008443,12.4371994 C186.907773,12.4371994 186.825226,12.4580043 186.762141,12.4982716 C186.699055,12.5392101 186.668183,12.5942422 186.668183,12.6626968 C186.668183,12.6996085 186.672881,12.7291379 186.683619,12.751285 C186.693014,12.7734321 186.715161,12.7955791 186.750731,12.8157128 C186.784287,12.8358465 186.835964,12.8539668 186.902405,12.8700738 C186.969517,12.8861807 187.058776,12.9069856 187.167499,12.931146 C187.47286,12.9922182 187.699699,13.1009401 187.850031,13.2573117 C188.001034,13.4130124 188.075528,13.6130071 188.075528,13.8572958 C188.075528,14.0398413 188.039287,14.2042664 187.965464,14.3505712 C187.892311,14.4975472 187.790972,14.6196917 187.661445,14.7196889 C187.531919,14.8190151 187.374205,14.8955232 187.192331,14.9512264 C187.008443,15.0062585 186.808448,15.0337746 186.58899,15.0337746 C186.166183,15.0337746 185.750087,14.9136435 185.340031,14.6733815 L185.742705,13.8935364 C186.05075,14.1049402 186.342688,14.2109776 186.619191,14.2109776 C186.72053,14.2109776 186.804421,14.1888306 186.868178,14.1431942 C186.933947,14.0989001 186.966832,14.0418547 186.966832,13.972729 C186.966832,13.9324616 186.961464,13.8989054 186.950726,13.8727317 C186.940658,13.8458867 186.919854,13.8217263 186.886969,13.7995792 C186.855427,13.7767611 186.807105,13.7566273 186.74402,13.738507 C186.680934,13.7203867 186.598386,13.7009241 186.497718,13.6807905 C186.156787,13.6109936 185.917867,13.5089829 185.78163,13.372745 C185.645392,13.2371781 185.577608,13.0492636 185.577608,12.8090016 C185.577608,12.6345096 185.609822,12.4774668 185.674249,12.337202 C185.74002,12.1969373 185.832635,12.0781486 185.95478,11.9808357 C186.076924,11.8828517 186.223228,11.807686 186.396378,11.7553384 C186.569527,11.7023197 186.760798,11.6761458 186.973545,11.6761458 C187.31783,11.6761458 187.653392,11.742587 187.978886,11.8768116 L187.606413,12.5962555" id="Fill-67" fill="#FFFFFE"></path>
                <path d="M191.098266,13.3633493 C191.098266,13.2660364 191.080147,13.1740925 191.045918,13.0861754 C191.011691,12.9989294 190.962029,12.9230925 190.896259,12.8579936 C190.832502,12.7935657 190.755994,12.7412181 190.668747,12.7029641 C190.58083,12.664039 190.486202,12.6445764 190.385534,12.6445764 C190.286879,12.6445764 190.196277,12.6626968 190.111044,12.6996085 C190.025811,12.7365203 189.951317,12.7868545 189.888232,12.8519534 C189.825817,12.9170524 189.77414,12.9935604 189.736558,13.0801353 C189.696962,13.1673813 189.678841,13.2599962 189.678841,13.3573091 C189.678841,13.4552931 189.696962,13.5465658 189.732531,13.6317985 C189.769443,13.7170311 189.820448,13.7915257 189.886218,13.8546113 C189.949975,13.9170258 190.025811,13.9680312 190.113729,14.0062851 C190.201646,14.0452103 190.29359,14.0640017 190.390231,14.0640017 C190.488886,14.0640017 190.58083,14.0465525 190.666063,14.0096407 C190.751296,13.972729 190.824448,13.9223948 190.887533,13.8572958 C190.949948,13.7921969 191.001625,13.7170311 191.040549,13.6317985 C191.078804,13.5465658 191.098266,13.4573064 191.098266,13.3633493 Z M189.709041,16.4773602 L188.605044,16.4773602 L188.605044,11.791579 L189.709041,11.791579 L189.709041,12.1392207 C189.944606,11.8425843 190.264731,11.6942661 190.670761,11.6942661 C190.894917,11.6942661 191.103635,11.7378891 191.296248,11.8251352 C191.48886,11.9123812 191.656641,12.0311699 191.798248,12.1821726 C191.941196,12.3318331 192.051261,12.5090096 192.131125,12.7116888 C192.209646,12.9143679 192.249242,13.1324829 192.249242,13.3633493 C192.249242,13.5955578 192.209646,13.8103172 192.131125,14.0096407 C192.051261,14.2082931 191.942539,14.3834563 191.802275,14.5331168 C191.662009,14.6841195 191.495571,14.801566 191.305644,14.8874697 C191.114374,14.9727023 190.906996,15.0149831 190.684184,15.0149831 C190.29359,15.0149831 189.968767,14.8807585 189.709041,14.6129803 L189.709041,16.4773602 Z" id="Fill-68" fill="#FFFFFE"></path>
                <path d="M192.845871,11.791579 L193.949197,11.791579 L193.949197,12.303646 C194.067314,12.1170737 194.211606,11.9734534 194.382071,11.8741271 C194.552537,11.7741298 194.75186,11.7244667 194.978029,11.7244667 C195.006887,11.7244667 195.03843,11.7244667 195.074,11.7244667 C195.108227,11.7244667 195.147152,11.7291645 195.192117,11.7365469 L195.192117,12.7908812 C195.046483,12.7177289 194.888098,12.6814882 194.717633,12.6814882 C194.460593,12.6814882 194.269323,12.757325 194.140468,12.9096701 C194.013625,13.062015 193.949197,13.2841567 193.949197,13.5774375 L193.949197,14.9176702 L192.845871,14.9176702 L192.845871,11.791579" id="Fill-69" fill="#FFFFFE"></path>
                <polygon id="Fill-70" fill="#FFFFFE" points="195.654521 14.9176702 196.758518 14.9176702 196.758518 9.86008681 195.654521 9.86008681"></polygon>
            </g>
        </g>
    </g>
</svg>