<?xml version="1.0" encoding="UTF-8"?>
<svg width="140px" height="43px" viewBox="0 0 140 43" version="1.1" xmlns="http://www.w3.org/2000/svg" xmlns:xlink="http://www.w3.org/1999/xlink">
    <!-- Generator: Sketch 50.2 (55047) - http://www.bohemiancoding.com/sketch -->
    <title>logo-dark</title>
    <desc>Created with Sketch.</desc>
    <defs></defs>
    <g id="Styleguide" stroke="none" stroke-width="1" fill="none" fill-rule="evenodd">
        <g id="logo-dark" transform="translate(-8.000000, -15.000000)">
            <g transform="translate(8.000000, 15.000000)">
                <path d="M31.4121477,18.3524945 C30.2179195,18.3524945 29.2031544,18.7796593 28.3673826,19.6316264 C27.5316107,20.4845385 27.1139597,21.5113407 27.1139597,22.712033 C27.1139597,23.9127253 27.5316107,24.9338571 28.3673826,25.7744835 C29.2031544,26.6151099 30.2179195,27.0351868 31.4121477,27.0351868 C32.605906,27.0351868 33.6267785,26.6151099 34.4742953,25.7744835 C35.3222819,24.9338571 35.7460403,23.9127253 35.7460403,22.712033 L35.7460403,8.5896044 C35.7460403,7.89357143 35.972953,7.31708791 36.4272483,6.86062637 C36.8801342,6.40463736 37.4532886,6.17593407 38.1462416,6.17593407 C38.8622148,6.17593407 39.4471141,6.39849451 39.9009396,6.84267033 C40.3542953,7.28731868 40.5816779,7.869 40.5816779,8.5896044 L40.5816779,22.712033 C40.5816779,25.2830549 39.6918792,27.4552637 37.9127517,29.2324396 C36.1345638,31.011033 33.9669128,31.8993846 31.4121477,31.8993846 C28.8569128,31.8993846 26.6958389,31.011033 24.9289262,29.2324396 C23.1620134,27.4552637 22.2787919,25.2830549 22.2787919,22.712033 C22.2787919,20.1178571 23.1563758,17.9328901 24.9110738,16.1552418 C26.6662416,14.3780659 28.832953,13.4892418 31.4121477,13.4892418 C32.1285906,13.4892418 32.7134899,13.7179451 33.1673154,14.1734615 C33.6206711,14.6303956 33.8480537,15.2182198 33.8480537,15.9392967 C33.8480537,16.6599011 33.6206711,17.2420549 33.1673154,17.6862308 C32.7134899,18.1313516 32.1285906,18.3524945 31.4121477,18.3524945" id="Fill-3" fill="#FFFFFE"></path>
                <path d="M57.952953,20.0101209 L53.3686577,24.5133077 C52.842953,25.0174945 52.2815436,25.2693516 51.6848993,25.2693516 C51.0163758,25.2693516 50.4366443,25.0174945 49.9475839,24.5133077 C49.4580537,24.0086484 49.2132886,23.4212967 49.2132886,22.7484176 C49.2132886,22.1478352 49.475906,21.5831648 50.0016107,21.0544066 L52.5803356,18.4966154 C52.2697987,18.4493626 51.9592617,18.4247912 51.6487248,18.4247912 C50.4544966,18.4247912 49.4402013,18.8453407 48.6044295,19.685967 C47.7681879,20.5270659 47.3510067,21.5472527 47.3510067,22.7484176 C47.3510067,23.9491099 47.7681879,24.9754396 48.6044295,25.8283516 C49.4402013,26.6812637 50.4544966,27.1074835 51.6487248,27.1074835 L54.8372483,27.1074835 C55.5532215,27.1074835 56.1320134,27.330044 56.574094,27.7732747 C57.0157047,28.2179231 57.2369799,28.8000769 57.2369799,29.5202088 C57.2369799,30.2412857 57.0157047,30.831 56.574094,31.2865165 C56.1320134,31.7415604 55.5532215,31.9702637 54.8372483,31.9702637 L51.6487248,31.9702637 C49.07,31.9702637 46.9032886,31.0823846 45.1485906,29.3042637 C43.392953,27.5275604 42.5158389,25.3421209 42.5158389,22.7484176 C42.5158389,20.1542418 43.392953,17.9744725 45.1485906,16.2091099 C46.9032886,14.4442198 49.07,13.5615385 51.6487248,13.5615385 C54.2518792,13.5615385 56.4604027,14.4976154 58.2752349,16.3711868 C58.7530201,16.8758462 58.9916779,17.4282308 58.9916779,18.0283407 C58.9916779,18.8207692 58.645906,19.4818352 57.952953,20.0101209" id="Fill-4" fill="#FFFFFE"></path>
                <path d="M76.3981879,25.8453626 C76.9732215,26.5905385 77.7352349,26.9638352 78.6922148,26.9638352 C79.5021477,26.9638352 80.1838255,26.6812637 80.7339597,26.1161209 C81.2822148,25.5528681 81.557047,24.862033 81.557047,24.045033 L81.557047,15.9029121 C81.557047,15.1823077 81.7844295,14.6006264 82.2368456,14.155978 C82.6897315,13.7113297 83.2760403,13.4892418 83.9920134,13.4892418 C84.7089262,13.4892418 85.2872483,13.7113297 85.7302685,14.155978 C86.1718792,14.6006264 86.3912752,15.1823077 86.3912752,15.9029121 L86.3912752,24.045033 C86.3912752,26.2304725 85.6522819,28.0742747 84.1719463,29.5745495 C82.6897315,31.0767143 80.8636242,31.8261429 78.6922148,31.8261429 C76.7801342,31.8261429 75.1085906,31.2142198 73.6761745,29.9894286 C72.2207383,31.2142198 70.5473154,31.8261429 68.6620134,31.8261429 C66.4657047,31.8261429 64.626443,31.0823846 63.1461074,29.592978 C61.665302,28.104044 60.9258389,26.2545714 60.9258389,24.045033 L60.9258389,15.9029121 C60.9258389,14.2944286 61.7371812,13.4892418 63.3612752,13.4892418 C64.0781879,13.4892418 64.6569799,13.7113297 65.0981208,14.155978 C65.5392617,14.6006264 65.7610067,15.1823077 65.7610067,15.9029121 L65.7610067,24.045033 C65.7610067,24.862033 66.0419463,25.5528681 66.6033557,26.1161209 C67.1628859,26.6812637 67.8506711,26.9638352 68.6620134,26.9638352 C69.4742953,26.9638352 70.1597315,26.6812637 70.7211409,26.1161209 C71.2825503,25.5528681 71.5634899,24.862033 71.5634899,24.045033 L71.5634899,15.9029121 C71.5634899,15.1823077 71.7833557,14.6006264 72.2263758,14.155978 C72.6679866,13.7113297 73.2463087,13.4892418 73.9632215,13.4892418 C75.5863758,13.4892418 76.3981879,14.2944286 76.3981879,15.9029121 L76.3981879,25.8453626" id="Fill-5" fill="#FFFFFE"></path>
                <path d="M103.799664,20.0101209 L99.2148993,24.5133077 C98.6891946,25.0174945 98.1277852,25.2693516 97.5320805,25.2693516 C96.8626174,25.2693516 96.2833557,25.0174945 95.7942953,24.5133077 C95.3047651,24.0086484 95.06,23.4212967 95.06,22.7484176 C95.06,22.1478352 95.3226174,21.5831648 95.8483221,21.0544066 L98.4265772,18.4966154 C98.1160403,18.4493626 97.8059732,18.4247912 97.4954362,18.4247912 C96.3007383,18.4247912 95.286443,18.8453407 94.4506711,19.685967 C93.6153691,20.5270659 93.1967785,21.5472527 93.1967785,22.7484176 C93.1967785,23.9491099 93.6153691,24.9754396 94.4506711,25.8283516 C95.286443,26.6812637 96.3007383,27.1074835 97.4954362,27.1074835 L100.68349,27.1074835 C101.399463,27.1074835 101.977785,27.330044 102.420805,27.7732747 C102.861477,28.2179231 103.083221,28.8000769 103.083221,29.5202088 C103.083221,30.2412857 102.861477,30.831 102.420805,31.2865165 C101.977785,31.7415604 101.399463,31.9702637 100.68349,31.9702637 L97.4954362,31.9702637 C94.9167114,31.9702637 92.75,31.0823846 90.9943624,29.3042637 C89.2391946,27.5275604 88.3616107,25.3421209 88.3616107,22.7484176 C88.3616107,20.1542418 89.2391946,17.9744725 90.9943624,16.2091099 C92.75,14.4442198 94.9167114,13.5615385 97.4954362,13.5615385 C100.097651,13.5615385 102.307114,14.4976154 104.121477,16.3711868 C104.598792,16.8758462 104.838389,17.4282308 104.838389,18.0283407 C104.838389,18.8207692 104.492148,19.4818352 103.799664,20.0101209" id="Fill-6" fill="#FFFFFE"></path>
                <path d="M111.606779,21.3067363 L111.606779,29.4838242 C111.606779,30.2058462 111.380336,30.7884725 110.92651,31.2321758 C110.472685,31.6763516 109.887315,31.8993846 109.171812,31.8993846 C108.455369,31.8993846 107.875638,31.6763516 107.434497,31.2321758 C106.992416,30.7884725 106.771611,30.2058462 106.771611,29.4838242 L106.771611,21.3067363 C106.771611,19.1212967 107.517181,17.2845824 109.009732,15.7951758 C110.502752,14.3062418 112.335436,13.5615385 114.508255,13.5615385 C115.200738,13.5615385 115.773893,13.7897692 116.227718,14.2457582 C116.681074,14.7022198 116.908456,15.2787033 116.908456,15.9752088 C116.908456,17.4646154 116.085369,18.2806703 114.436376,18.4247912 C113.624564,18.4966154 112.950872,18.791 112.412953,19.3074725 C111.875973,19.8239451 111.606779,20.4906813 111.606779,21.3067363" id="Fill-7" fill="#FFFFFE"></path>
                <path d="M134.279732,24.1163846 C134.279732,26.3027692 133.539799,28.1460989 132.059933,29.6477912 C130.578188,31.1480659 128.751611,31.8993846 126.578792,31.8993846 C124.382483,31.8993846 122.543691,31.1542088 121.062886,29.6648022 C119.582081,28.1763407 118.842148,26.3268681 118.842148,24.1163846 L118.842148,11.7238791 C118.842148,11.0032747 119.062483,10.414978 119.505034,9.95851648 C119.945705,9.503 120.525436,9.2742967 121.242349,9.2742967 C121.958322,9.2742967 122.543691,9.503 122.997517,9.95851648 C123.450872,10.414978 123.677315,11.0032747 123.677315,11.7238791 L123.677315,13.6333626 L131.88047,13.6333626 C132.595973,13.6333626 133.175235,13.8559231 133.617315,14.3000989 C134.058456,14.7447473 134.279732,15.3264286 134.279732,16.0475055 C134.279732,17.6805604 133.479664,18.4966154 131.88047,18.4966154 L123.677315,18.4966154 L123.677315,24.1163846 C123.677315,24.9338571 123.958255,25.6246923 124.519664,26.1884176 C125.080134,26.7530879 125.76651,27.0351868 126.578792,27.0351868 C127.390604,27.0351868 128.071342,26.7530879 128.620537,26.1884176 C129.169732,25.6246923 129.444564,24.9338571 129.444564,24.1163846 L129.444564,23.7927033 C129.444564,23.0966703 129.677584,22.5197143 130.143154,22.0632527 C130.609195,21.6072637 131.187517,21.379033 131.88047,21.379033 C132.572013,21.379033 133.145638,21.6072637 133.598993,22.0632527 C134.052819,22.5197143 134.279732,23.0966703 134.279732,23.7927033 L134.279732,24.1163846" id="Fill-8" fill="#FFFFFE"></path>
                <path d="M22.3431544,40.6383077 L22.1716779,40.6383077 C19.5426846,40.6383077 17.3430872,39.7471209 15.5719463,37.9661648 C13.8003356,36.1833187 12.9147651,33.9718901 12.9147651,31.3285714 L12.9147651,28.8274835 L12.8715436,9.69012088 C12.8715436,8.74128571 12.5356376,7.9223956 11.8647651,7.23250549 C11.1934228,6.54261538 10.3863087,6.19814286 9.44389262,6.19814286 C8.47187919,6.19814286 7.65020134,6.536 6.97932886,7.21076923 C6.30798658,7.88695604 5.97208054,8.71293407 5.97208054,9.69012088 L5.97208054,28.268011 C5.97208054,29.1299011 5.70053691,29.8259341 5.15791946,30.3584725 C4.61530201,30.8895934 3.91530201,31.1556264 3.05791946,31.1556264 C2.20100671,31.1556264 1.50805369,30.8895934 0.98,30.3584725 C0.450536913,29.8259341 0.186510067,29.1299011 0.186510067,28.268011 L0.186510067,9.69012088 C0.186510067,7.07515385 1.07959732,4.8693956 2.86577181,3.07331868 C4.65053691,1.27724176 6.84355705,0.378967033 9.44389262,0.378967033 C11.8713423,0.378967033 14.0145638,1.23424176 15.8721477,2.94384615 C17.7287919,4.65392308 18.6575839,6.73020879 18.6575839,9.1727033 L18.7003356,31.3285714 C18.7003356,32.3043407 19.0362416,33.1303187 19.7075839,33.806978 C20.3784564,34.4808022 21.2001342,34.8191319 22.1716779,34.8191319 L22.3431544,34.8191319 C23.2000671,34.8191319 23.9000671,35.0917802 24.4431544,35.638022 C24.985302,36.1833187 25.2568456,36.8883297 25.2568456,37.7506923 C25.2568456,38.6125824 24.985302,39.3086154 24.4431544,39.8411538 C23.9000671,40.3718022 23.2000671,40.6383077 22.3431544,40.6383077" id="Fill-9" fill="#2F3231"></path>
                <path d="M30.8798658,37.7700659 C30.6581208,37.6051538 30.3950336,37.4719011 30.107047,37.4719011 C29.5315436,37.4719011 29.0795973,37.9189121 29.0795973,38.5057912 C29.0795973,39.1186593 29.5155705,39.5481868 30.1319463,39.5481868 C30.3950336,39.5481868 30.6830201,39.4404505 30.8798658,39.259 L30.8798658,40.5329341 C30.5514765,40.6978462 30.1897315,40.772978 29.8279866,40.772978 C28.5783221,40.772978 27.5339597,39.8369011 27.5339597,38.5554066 C27.5339597,37.1921648 28.5698658,36.2485275 29.8937584,36.2485275 C30.2390604,36.2485275 30.5843624,36.3307473 30.8798658,36.4966044 L30.8798658,37.7700659" id="Fill-10" fill="#FFFFFE"></path>
                <path d="M33.0747651,38.5147692 C33.0747651,39.0510879 33.4280537,39.4654945 34.036443,39.4654945 C34.645302,39.4654945 34.9990604,39.0510879 34.9990604,38.5147692 C34.9990604,37.9930989 34.645302,37.5550659 34.036443,37.5550659 C33.4280537,37.5550659 33.0747651,37.9930989 33.0747651,38.5147692 Z M36.5771141,38.5147692 C36.5771141,39.9531429 35.3932215,40.772978 34.036443,40.772978 C32.6885906,40.772978 31.4962416,39.9621209 31.4962416,38.5147692 C31.4962416,37.0669451 32.6801342,36.2485275 34.036443,36.2485275 C35.3932215,36.2485275 36.5771141,37.0669451 36.5771141,38.5147692 Z" id="Fill-11" fill="#FFFFFE"></path>
                <path d="M38.7475839,36.9346374 L38.7640268,36.9346374 C39.1097987,36.4224176 39.5288591,36.2485275 40.112349,36.2485275 C41.2469128,36.2485275 41.6993289,36.9677143 41.6993289,38.0101099 L41.6993289,40.6312198 L40.2030201,40.6312198 L40.2030201,38.5634396 C40.2030201,38.1594286 40.2683221,37.4473297 39.5288591,37.4473297 C38.9204698,37.4473297 38.7475839,37.9028462 38.7475839,38.4320769 L38.7475839,40.6312198 L37.2512752,40.6312198 L37.2512752,36.3883956 L38.7475839,36.3883956 L38.7475839,36.9346374" id="Fill-12" fill="#FFFFFE"></path>
                <path d="M45.4727517,37.4808791 C45.2420805,37.3566044 44.9221477,37.2743846 44.667047,37.2743846 C44.4941611,37.2743846 44.1981879,37.3485714 44.1981879,37.5635714 C44.1981879,37.8522857 44.667047,37.8948132 44.872349,37.934978 C45.5714094,38.0753187 46.0975839,38.4065604 46.0975839,39.1923736 C46.0975839,40.3084835 45.0861074,40.772978 44.1079866,40.772978 C43.5075839,40.772978 42.9156376,40.5981429 42.405906,40.2848571 L42.9485235,39.233956 C43.2524832,39.448956 43.7626846,39.663956 44.1324161,39.663956 C44.321745,39.663956 44.6012752,39.5732308 44.6012752,39.3416923 C44.6012752,39.0109231 44.1324161,38.9939121 43.663557,38.8696374 C43.1951678,38.7463077 42.7263087,38.5147692 42.7263087,37.7535275 C42.7263087,36.7116044 43.663557,36.2485275 44.5848322,36.2485275 C45.0616779,36.2485275 45.5385235,36.3236593 45.9744966,36.5211758 L45.4727517,37.4808791" id="Fill-13" fill="#FFFFFE"></path>
                <polyline id="Fill-14" fill="#FFFFFE" points="48.5391275 40.6312198 47.0428188 40.6312198 47.0428188 37.6292527 46.5575168 37.6292527 46.5575168 36.3883956 47.0428188 36.3883956 47.0428188 35.1149341 48.5391275 35.1149341 48.5391275 36.3883956 49.3857047 36.3883956 49.3857047 37.6292527 48.5391275 37.6292527 48.5391275 40.6312198"></polyline>
                <path d="M51.3588591,37.083956 L51.3748322,37.083956 C51.6628188,36.5627582 52.1565772,36.3307473 52.7400671,36.3307473 L53.0275839,36.3307473 L53.0275839,37.7785714 C52.8222819,37.6623297 52.6254362,37.6377582 52.3942953,37.6377582 C51.5641611,37.6377582 51.3588591,38.1915604 51.3588591,38.9197253 L51.3588591,40.6312198 L49.8625503,40.6312198 L49.8625503,36.3883956 L51.3588591,36.3883956 L51.3588591,37.083956" id="Fill-15" fill="#FFFFFE"></path>
                <path d="M55.0580537,36.3883956 L55.0580537,38.6555824 C55.0580537,39.1923736 55.1900671,39.5732308 55.806443,39.5732308 C56.4232886,39.5732308 56.5543624,39.1923736 56.5543624,38.6555824 L56.5543624,36.3883956 L58.0511409,36.3883956 L58.0511409,38.9438242 C58.0511409,40.3425055 57.0725503,40.772978 55.806443,40.772978 C54.5403356,40.772978 53.5612752,40.3425055 53.5612752,38.9438242 L53.5612752,36.3883956 L55.0580537,36.3883956" id="Fill-16" fill="#FFFFFE"></path>
                <path d="M62.0463087,37.7700659 C61.8245638,37.6051538 61.5614765,37.4719011 61.2730201,37.4719011 C60.6979866,37.4719011 60.2455705,37.9189121 60.2455705,38.5057912 C60.2455705,39.1186593 60.6815436,39.5481868 61.2983893,39.5481868 C61.5614765,39.5481868 61.8489933,39.4404505 62.0463087,39.259 L62.0463087,40.5329341 C61.7174497,40.6978462 61.3561745,40.772978 60.9939597,40.772978 C59.7442953,40.772978 58.6999329,39.8369011 58.6999329,38.5554066 C58.6999329,37.1921648 59.7363087,36.2485275 61.0597315,36.2485275 C61.4050336,36.2485275 61.7503356,36.3307473 62.0463087,36.4966044 L62.0463087,37.7700659" id="Fill-17" fill="#FFFFFE"></path>
                <polyline id="Fill-18" fill="#FFFFFE" points="64.6109396 40.6312198 63.1146309 40.6312198 63.1146309 37.6292527 62.6297987 37.6292527 62.6297987 36.3883956 63.1146309 36.3883956 63.1146309 35.1149341 64.6109396 35.1149341 64.6109396 36.3883956 65.4584564 36.3883956 65.4584564 37.6292527 64.6109396 37.6292527 64.6109396 40.6312198"></polyline>
                <path d="M65.9348322,40.6312198 L67.4302013,40.6312198 L67.4302013,36.3883956 L65.9348322,36.3883956 L65.9348322,40.6312198 Z M67.5213423,34.7595934 C67.5213423,35.2226703 67.1426846,35.6030549 66.6822819,35.6030549 C66.222349,35.6030549 65.8441611,35.2226703 65.8441611,34.7595934 C65.8441611,34.2965165 66.222349,33.9161319 66.6822819,33.9161319 C67.1426846,33.9161319 67.5213423,34.2965165 67.5213423,34.7595934 Z" id="Fill-19" fill="#FFFFFE"></path>
                <path d="M69.6819463,38.5147692 C69.6819463,39.0510879 70.0366443,39.4654945 70.6450336,39.4654945 C71.2534228,39.4654945 71.6067114,39.0510879 71.6067114,38.5147692 C71.6067114,37.9930989 71.2534228,37.5550659 70.6450336,37.5550659 C70.0366443,37.5550659 69.6819463,37.9930989 69.6819463,38.5147692 Z M73.1852349,38.5147692 C73.1852349,39.9531429 72.0013423,40.772978 70.6450336,40.772978 C69.2962416,40.772978 68.1038926,39.9621209 68.1038926,38.5147692 C68.1038926,37.0669451 69.2877852,36.2485275 70.6450336,36.2485275 C72.0013423,36.2485275 73.1852349,37.0669451 73.1852349,38.5147692 Z" id="Fill-20" fill="#FFFFFE"></path>
                <path d="M75.3547651,36.9346374 L75.3726174,36.9346374 C75.7169799,36.4224176 76.1365101,36.2485275 76.7209396,36.2485275 C77.8555034,36.2485275 78.3074497,36.9677143 78.3074497,38.0101099 L78.3074497,40.6312198 L76.8102013,40.6312198 L76.8102013,38.5634396 C76.8102013,38.1594286 76.876443,37.4473297 76.1365101,37.4473297 C75.5281208,37.4473297 75.3547651,37.9028462 75.3547651,38.4320769 L75.3547651,40.6312198 L73.8598658,40.6312198 L73.8598658,36.3883956 L75.3547651,36.3883956 L75.3547651,36.9346374" id="Fill-21" fill="#FFFFFE"></path>
                <path d="M85.057047,37.8948132 C84.9832886,37.4893846 84.6130872,37.2242967 84.21,37.2242967 C83.7744966,37.2242967 83.4127517,37.4558352 83.3220805,37.8948132 L85.057047,37.8948132 Z M83.9638255,35.7604066 L83.2971812,35.2722857 L84.4561745,33.8504505 L85.3694631,34.5115165 L83.9638255,35.7604066 Z M86.4467114,38.7633187 L83.2971812,38.7633187 C83.2971812,39.3742967 83.6175839,39.7055385 84.2348993,39.7055385 C84.5557718,39.7055385 84.7859732,39.5978022 84.9499329,39.3166484 L86.3884564,39.3166484 C86.2742953,39.8123297 85.9778523,40.1771209 85.5912081,40.4166923 C85.2050336,40.6567363 84.7277181,40.772978 84.2424161,40.772978 C82.8452349,40.772978 81.8004027,39.9781868 81.8004027,38.5147692 C81.8004027,37.1004945 82.7634899,36.2485275 84.1357718,36.2485275 C85.5996644,36.2485275 86.4467114,37.1576703 86.4467114,38.6054945 L86.4467114,38.7633187 Z" id="Fill-22" fill="#FFFFFE"></path>
                <path d="M90.1703356,37.7700659 C89.9490604,37.6051538 89.6850336,37.4719011 89.3975168,37.4719011 C88.8220134,37.4719011 88.3705369,37.9189121 88.3705369,38.5057912 C88.3705369,39.1186593 88.8055705,39.5481868 89.4228859,39.5481868 C89.6850336,39.5481868 89.9730201,39.4404505 90.1703356,39.259 L90.1703356,40.5329341 C89.8419463,40.6978462 89.4802013,40.772978 89.1175168,40.772978 C87.8673826,40.772978 86.8239597,39.8369011 86.8239597,38.5554066 C86.8239597,37.1921648 87.8603356,36.2485275 89.1837584,36.2485275 C89.5295302,36.2485275 89.8743624,36.3307473 90.1703356,36.4966044 L90.1703356,37.7700659" id="Fill-23" fill="#FFFFFE"></path>
                <path d="M92.3647651,38.5147692 C92.3647651,39.0510879 92.7189933,39.4654945 93.3273826,39.4654945 C93.9362416,39.4654945 94.2895302,39.0510879 94.2895302,38.5147692 C94.2895302,37.9930989 93.9362416,37.5550659 93.3273826,37.5550659 C92.7189933,37.5550659 92.3647651,37.9930989 92.3647651,38.5147692 Z M95.8685235,38.5147692 C95.8685235,39.9531429 94.6836913,40.772978 93.3273826,40.772978 C91.9790604,40.772978 90.7862416,39.9621209 90.7862416,38.5147692 C90.7862416,37.0669451 91.970604,36.2485275 93.3273826,36.2485275 C94.6836913,36.2485275 95.8685235,37.0669451 95.8685235,38.5147692 Z" id="Fill-24" fill="#FFFFFE"></path>
                <polygon id="Fill-25" fill="#FFFFFE" points="96.5412752 40.6312198 98.0371141 40.6312198 98.0371141 33.7672857 96.5412752 33.7672857"></polygon>
                <path d="M100.290268,38.5147692 C100.290268,39.0510879 100.644027,39.4654945 101.252416,39.4654945 C101.860805,39.4654945 102.214094,39.0510879 102.214094,38.5147692 C102.214094,37.9930989 101.860805,37.5550659 101.252416,37.5550659 C100.644027,37.5550659 100.290268,37.9930989 100.290268,38.5147692 Z M103.793087,38.5147692 C103.793087,39.9531429 102.608255,40.772978 101.252416,40.772978 C99.9036242,40.772978 98.7112752,39.9621209 98.7112752,38.5147692 C98.7112752,37.0669451 99.8951678,36.2485275 101.252416,36.2485275 C102.608255,36.2485275 103.793087,37.0669451 103.793087,38.5147692 Z" id="Fill-26" fill="#FFFFFE"></path>
                <path d="M105.72396,38.4807473 C105.72396,39.018956 106.077248,39.4319451 106.685638,39.4319451 C107.294027,39.4319451 107.647315,39.018956 107.647315,38.4807473 C107.647315,37.9604945 107.294027,37.5224615 106.685638,37.5224615 C106.077248,37.5224615 105.72396,37.9604945 105.72396,38.4807473 Z M109.095235,40.2177582 C109.095235,42.0213956 108.206846,42.7486154 106.653221,42.7486154 C105.682617,42.7486154 104.383154,42.2444286 104.252081,41.1283187 L105.929732,41.1283187 C105.970134,41.2757473 106.077248,41.383956 106.209262,41.4505824 C106.340336,41.5162637 106.496779,41.5488681 106.635839,41.5488681 C107.442013,41.5488681 107.598456,41.0205824 107.598456,40.334 L107.598456,40.1350659 C107.211812,40.523956 106.817181,40.7139121 106.257651,40.7139121 C105.024899,40.7139121 104.177852,39.7721648 104.177852,38.5483187 C104.177852,37.306989 105.049329,36.2485275 106.340336,36.2485275 C106.833624,36.2485275 107.28604,36.4134396 107.582483,36.8368242 L107.598456,36.8368242 L107.598456,36.3883956 L109.095235,36.3883956 L109.095235,40.2177582 Z" id="Fill-27" fill="#FFFFFE"></path>
                <path d="M110.032013,40.6312198 L111.527383,40.6312198 L111.527383,36.3883956 L110.032013,36.3883956 L110.032013,40.6312198 Z M111.618523,34.7595934 C111.618523,35.2226703 111.239866,35.6030549 110.779933,35.6030549 C110.31953,35.6030549 109.941342,35.2226703 109.941342,34.7595934 C109.941342,34.2965165 110.31953,33.9161319 110.779933,33.9161319 C111.239866,33.9161319 111.618523,34.2965165 111.618523,34.7595934 Z" id="Fill-28" fill="#FFFFFE"></path>
                <path d="M113.813893,38.5147692 C113.813893,39.0510879 114.167181,39.4654945 114.77557,39.4654945 C115.38443,39.4654945 115.737248,39.0510879 115.737248,38.5147692 C115.737248,37.9930989 115.38443,37.5550659 114.77557,37.5550659 C114.167181,37.5550659 113.813893,37.9930989 113.813893,38.5147692 Z M117.185168,42.7486154 L115.688389,42.7486154 L115.688389,40.2262637 C115.375973,40.5981429 114.866242,40.772978 114.381409,40.772978 C113.123289,40.772978 112.267785,39.7471209 112.267785,38.5232747 C112.267785,37.3145495 113.147248,36.2485275 114.397383,36.2485275 C114.891611,36.2485275 115.408389,36.4465165 115.672416,36.868956 L115.688389,36.868956 L115.688389,36.3883956 L117.185168,36.3883956 L117.185168,42.7486154 Z" id="Fill-29" fill="#FFFFFE"></path>
                <path d="M119.593356,36.3883956 L119.593356,38.6555824 C119.593356,39.1923736 119.72443,39.5732308 120.341275,39.5732308 C120.958591,39.5732308 121.090134,39.1923736 121.090134,38.6555824 L121.090134,36.3883956 L122.585973,36.3883956 L122.585973,38.9438242 C122.585973,40.3425055 121.608322,40.772978 120.341275,40.772978 C119.075168,40.772978 118.097517,40.3425055 118.097517,38.9438242 L118.097517,36.3883956 L119.593356,36.3883956" id="Fill-30" fill="#FFFFFE"></path>
                <path d="M126.483423,37.8948132 C126.408725,37.4893846 126.038993,37.2242967 125.636376,37.2242967 C125.200403,37.2242967 124.838658,37.4558352 124.747987,37.8948132 L126.483423,37.8948132 Z M127.873087,38.7633187 L124.722617,38.7633187 C124.722617,39.3742967 125.04396,39.7055385 125.661275,39.7055385 C125.981678,39.7055385 126.211879,39.5978022 126.376309,39.3166484 L127.814832,39.3166484 C127.699732,39.8123297 127.403758,40.1771209 127.017114,40.4166923 C126.631409,40.6567363 126.153624,40.772978 125.668792,40.772978 C124.271611,40.772978 123.226779,39.9781868 123.226779,38.5147692 C123.226779,37.1004945 124.189396,36.2485275 125.561678,36.2485275 C127.02604,36.2485275 127.873087,37.1576703 127.873087,38.6054945 L127.873087,38.7633187 Z" id="Fill-31" fill="#FFFFFE"></path>
                <path d="M139.727517,10.7689011 C139.727517,14.095967 137.046376,16.7936264 133.737584,16.7936264 C130.429732,16.7936264 127.747651,14.095967 127.747651,10.7689011 C127.747651,7.44183516 130.429732,4.74417582 133.737584,4.74417582 C137.046376,4.74417582 139.727517,7.44183516 139.727517,10.7689011" id="Fill-32" fill="#2F3231"></path>
                <path d="M131.327987,10.3653626 C131.185638,10.2911758 131.046107,10.2538462 130.909396,10.2538462 C130.838926,10.2538462 130.781141,10.268022 130.73698,10.2968462 C130.692819,10.3251978 130.671208,10.3639451 130.671208,10.4126154 C130.671208,10.4386044 130.674497,10.4589231 130.682013,10.474989 C130.688591,10.4905824 130.704094,10.5057033 130.728993,10.5198791 C130.752483,10.5345275 130.788658,10.5468132 130.835168,10.5581538 C130.882148,10.569967 130.944631,10.5841429 131.020738,10.6011538 C131.234497,10.6441538 131.393289,10.7207033 131.498523,10.8312747 C131.604228,10.9409011 131.656376,11.0817143 131.656376,11.2532418 C131.656376,11.3822418 131.631007,11.498011 131.579329,11.6005495 C131.528121,11.704033 131.457181,11.7905055 131.36651,11.8604396 C131.275839,11.9308462 131.165436,11.9847143 131.038121,12.0234615 C130.909396,12.0622088 130.769396,12.0815824 130.615772,12.0815824 C130.319799,12.0815824 130.028523,11.997 129.741477,11.8283077 L130.023356,11.2792308 C130.238993,11.4276044 130.443356,11.5022637 130.636913,11.5022637 C130.707852,11.5022637 130.766577,11.4866703 130.811208,11.455011 C130.857248,11.4233516 130.880268,11.3836593 130.880268,11.334989 C130.880268,11.3061648 130.87651,11.283011 130.868993,11.2645824 C130.861946,11.2456813 130.847383,11.2281978 130.824362,11.2126044 C130.802282,11.197011 130.768456,11.1828352 130.724295,11.1696044 C130.680134,11.1568462 130.622349,11.1436154 130.551879,11.128967 C130.313221,11.0802967 130.145973,11.0084725 130.050604,10.9120769 C129.955235,10.8166264 129.907785,10.6843187 129.907785,10.5156264 C129.907785,10.3927692 129.930336,10.2817253 129.975436,10.182967 C130.021477,10.0842088 130.086309,10.001044 130.171812,9.93205495 C130.257315,9.86353846 130.359732,9.81014286 130.48094,9.77328571 C130.602148,9.73595604 130.73604,9.71752747 130.884966,9.71752747 C131.125973,9.71752747 131.360872,9.76478022 131.588725,9.85928571 L131.327987,10.3653626" id="Fill-33" fill="#FFFFFE"></path>
                <path d="M133.772349,10.9059341 C133.772349,10.8369451 133.759664,10.7726813 133.735705,10.7107802 C133.711745,10.6493516 133.67698,10.595956 133.63094,10.5501209 C133.586309,10.5042857 133.532752,10.4674286 133.471678,10.4404945 C133.410134,10.4135604 133.343893,10.3993846 133.273423,10.3993846 C133.204362,10.3993846 133.14094,10.4126154 133.081275,10.4386044 C133.021611,10.4641209 132.969463,10.4995604 132.925302,10.5453956 C132.881611,10.5917033 132.845436,10.6450989 132.819128,10.7065275 C132.791409,10.767956 132.778725,10.8326923 132.778725,10.9016813 C132.778725,10.9701978 132.791409,11.0344615 132.816309,11.0944725 C132.842148,11.1544835 132.877852,11.2069341 132.923893,11.2513516 C132.968523,11.2957692 133.021611,11.3312088 133.083154,11.3586154 C133.144698,11.3855495 133.20906,11.3992527 133.276711,11.3992527 C133.345772,11.3992527 133.410134,11.3864945 133.469799,11.360978 C133.529463,11.334989 133.580671,11.2995495 133.624832,11.2532418 C133.668523,11.2074066 133.704698,11.1544835 133.731946,11.0944725 C133.758725,11.0344615 133.772349,10.9716154 133.772349,10.9059341 Z M132.799866,13.097989 L132.027047,13.097989 L132.027047,9.79927473 L132.799866,9.79927473 L132.799866,10.044044 C132.964765,9.83471429 133.188859,9.73028571 133.473087,9.73028571 C133.63,9.73028571 133.776107,9.76147253 133.91094,9.8229011 C134.045772,9.88432967 134.163221,9.96749451 134.262349,10.0738132 C134.362416,10.1796593 134.439463,10.3039341 134.495369,10.4466374 C134.550336,10.5898132 134.578054,10.7429121 134.578054,10.9059341 C134.578054,11.068956 134.550336,11.2206374 134.495369,11.360978 C134.439463,11.5008462 134.363356,11.6237033 134.265168,11.7295495 C134.16698,11.8358681 134.05047,11.9180879 133.917517,11.9785714 C133.783624,12.0385824 133.638456,12.0688242 133.482483,12.0688242 C133.20906,12.0688242 132.981678,11.9743187 132.799866,11.7853077 L132.799866,13.097989 Z" id="Fill-34" fill="#FFFFFE"></path>
                <path d="M134.995705,9.79927473 L135.768054,9.79927473 L135.768054,10.1598132 C135.850738,10.027978 135.951745,9.92685714 136.071074,9.85692308 C136.190403,9.78698901 136.329933,9.75154945 136.488255,9.75154945 C136.508456,9.75154945 136.530537,9.75154945 136.555436,9.75154945 C136.579396,9.75154945 136.606644,9.75485714 136.638121,9.76052747 L136.638121,10.5023956 C136.536174,10.4513626 136.425302,10.4253736 136.305973,10.4253736 C136.12604,10.4253736 135.992148,10.4787692 135.901946,10.5865055 C135.813154,10.6937692 135.768054,10.8501758 135.768054,11.0561978 L135.768054,11.9998352 L134.995705,11.9998352 L134.995705,9.79927473" id="Fill-35" fill="#FFFFFE"></path>
                <polygon id="Fill-36" fill="#FFFFFE" points="136.961812 11.9998352 137.734631 11.9998352 137.734631 8.43886813 136.961812 8.43886813"></polygon>
            </g>
        </g>
    </g>
</svg>