<svg xmlns="http://www.w3.org/2000/svg" width="20" height="20" viewBox="0 0 20 20">
  <path fill="#558725" fill-rule="evenodd" d="M9.218,10.814 L7.45,9.047 C7.07338829,8.65706512 6.51568316,8.5006811 5.99123901,8.63795427 C5.46679487,8.77522743 5.05722743,9.18479487 4.91995427,9.70923901 C4.7826811,10.2336832 4.93906512,10.7913883 5.329,11.168 L8.155,13.995 C8.43663066,14.2780699 8.81973892,14.4368027 9.21904272,14.4358636 C9.61834651,14.4349245 10.0007039,14.2743915 10.281,13.99 L15.929,8.343 C16.3189349,7.96638829 16.4753189,7.40868316 16.3380457,6.88423901 C16.2007726,6.35979487 15.7912051,5.95022743 15.266761,5.81295427 C14.7423168,5.6756811 14.1846117,5.83206512 13.808,6.222 L9.217,10.814 L9.218,10.814 Z M10,20 C15.523,20 20,15.523 20,10 C20,4.477 15.523,0 10,0 C4.477,0 0,4.477 0,10 C0,15.523 4.477,20 10,20 Z"/>
</svg>
