<svg width="47" height="47" xmlns="http://www.w3.org/2000/svg"><path d="M43.5 45a1.5 1.5 0 1 1 0-3 1.5 1.5 0 0 1 0 3zm-40-10a1.5 1.5 0 1 1 0-3 1.5 1.5 0 0 1 0 3zm20 0a1.5 1.5 0 1 1 0-3 1.5 1.5 0 0 1 0 3zm10 0a1.5 1.5 0 1 1 0-3 1.5 1.5 0 0 1 0 3zm10 0a1.5 1.5 0 1 1 0-3 1.5 1.5 0 0 1 0 3zm-40-10a1.5 1.5 0 1 1 0-3 1.5 1.5 0 0 1 0 3zm20 0a1.5 1.5 0 1 1 0-3 1.5 1.5 0 0 1 0 3zm10 0a1.5 1.5 0 1 1 0-3 1.5 1.5 0 0 1 0 3zm10 0a1.5 1.5 0 1 1 0-3 1.5 1.5 0 0 1 0 3zm-40-10a1.5 1.5 0 1 1 0-3 1.5 1.5 0 0 1 0 3zm20 0a1.5 1.5 0 1 1 0-3 1.5 1.5 0 0 1 0 3zm0-10a1.5 1.5 0 1 1 0-3 1.5 1.5 0 0 1 0 3zm10 10a1.5 1.5 0 1 1 0-3 1.5 1.5 0 0 1 0 3zm10 0a1.5 1.5 0 1 1 0-3 1.5 1.5 0 0 1 0 3zm0-10a1.5 1.5 0 1 1 0-3 1.5 1.5 0 0 1 0 3zm-10 0a1.5 1.5 0 1 1 0-3 1.5 1.5 0 0 1 0 3zm-20 0a1.5 1.5 0 1 1 0-3 1.5 1.5 0 0 1 0 3zm-10 0a1.5 1.5 0 1 1 0-3 1.5 1.5 0 0 1 0 3zm10 10a1.5 1.5 0 1 1 0-3 1.5 1.5 0 0 1 0 3zm0 10a1.5 1.5 0 1 1 0-3 1.5 1.5 0 0 1 0 3zm0 10a1.5 1.5 0 1 1 0-3 1.5 1.5 0 0 1 0 3zm0 10a1.5 1.5 0 1 1 0-3 1.5 1.5 0 0 1 0 3zm-10 0a1.5 1.5 0 1 1 0-3 1.5 1.5 0 0 1 0 3zm20 0a1.5 1.5 0 1 1 0-3 1.5 1.5 0 0 1 0 3zm10 0a1.5 1.5 0 1 1 0-3 1.5 1.5 0 0 1 0 3z" fill="#82BE43" fill-rule="evenodd"/></svg>