<?xml version="1.0" encoding="UTF-8"?>
<svg width="47px" height="47px" viewBox="0 0 47 47" version="1.1" xmlns="http://www.w3.org/2000/svg" xmlns:xlink="http://www.w3.org/1999/xlink">
    <!-- Generator: Sketch 49.1 (51147) - http://www.bohemiancoding.com/sketch -->
    <title>icn-isolations</title>
    <desc>Created with Sketch.</desc>
    <defs></defs>
    <g id="icn-isolations" stroke="none" stroke-width="1" fill="none" fill-rule="evenodd">
        <path d="M23.5,46 C11.0735931,46 1,35.9264069 1,23.5 C1,11.0735931 11.0735931,1 23.5,1 C35.9264069,1 46,11.0735931 46,23.5 C46,35.9264069 35.9264069,46 23.5,46 Z M23.5,43 C34.2695526,43 43,34.2695526 43,23.5 C43,12.7304474 34.2695526,4 23.5,4 C12.7304474,4 4,12.7304474 4,23.5 C4,34.2695526 12.7304474,43 23.5,43 Z M23.5,41 C13.8350169,41 6,33.1649831 6,23.5 C6,13.8350169 13.8350169,6 23.5,6 C33.1649831,6 41,13.8350169 41,23.5 C41,33.1649831 33.1649831,41 23.5,41 Z M23.5,38 C31.5081289,38 38,31.5081289 38,23.5 C38,15.4918711 31.5081289,9 23.5,9 C15.4918711,9 9,15.4918711 9,23.5 C9,31.5081289 15.4918711,38 23.5,38 Z" id="Combined-Shape" fill="#82BE43" fill-rule="nonzero"></path>
    </g>
</svg>