<?xml version="1.0" encoding="UTF-8"?>
<svg width="47px" height="47px" viewBox="0 0 47 47" version="1.1" xmlns="http://www.w3.org/2000/svg" xmlns:xlink="http://www.w3.org/1999/xlink">
    <!-- Generator: Sketch 49.1 (51147) - http://www.bohemiancoding.com/sketch -->
    <title>icn-competences</title>
    <desc>Created with Sketch.</desc>
    <defs></defs>
    <g id="icn-competences" stroke="none" stroke-width="1" fill="none" fill-rule="evenodd">
        <path d="M43.5,45 C42.6715729,45 42,44.3284271 42,43.5 C42,42.6715729 42.6715729,42 43.5,42 C44.3284271,42 45,42.6715729 45,43.5 C45,44.3284271 44.3284271,45 43.5,45 Z M3.5,35 C2.67157288,35 2,34.3284271 2,33.5 C2,32.6715729 2.67157288,32 3.5,32 C4.32842712,32 5,32.6715729 5,33.5 C5,34.3284271 4.32842712,35 3.5,35 Z M23.5,35 C22.6715729,35 22,34.3284271 22,33.5 C22,32.6715729 22.6715729,32 23.5,32 C24.3284271,32 25,32.6715729 25,33.5 C25,34.3284271 24.3284271,35 23.5,35 Z M33.5,35 C32.6715729,35 32,34.3284271 32,33.5 C32,32.6715729 32.6715729,32 33.5,32 C34.3284271,32 35,32.6715729 35,33.5 C35,34.3284271 34.3284271,35 33.5,35 Z M43.5,35 C42.6715729,35 42,34.3284271 42,33.5 C42,32.6715729 42.6715729,32 43.5,32 C44.3284271,32 45,32.6715729 45,33.5 C45,34.3284271 44.3284271,35 43.5,35 Z M3.5,25 C2.67157288,25 2,24.3284271 2,23.5 C2,22.6715729 2.67157288,22 3.5,22 C4.32842712,22 5,22.6715729 5,23.5 C5,24.3284271 4.32842712,25 3.5,25 Z M23.5,25 C22.6715729,25 22,24.3284271 22,23.5 C22,22.6715729 22.6715729,22 23.5,22 C24.3284271,22 25,22.6715729 25,23.5 C25,24.3284271 24.3284271,25 23.5,25 Z M33.5,25 C32.6715729,25 32,24.3284271 32,23.5 C32,22.6715729 32.6715729,22 33.5,22 C34.3284271,22 35,22.6715729 35,23.5 C35,24.3284271 34.3284271,25 33.5,25 Z M43.5,25 C42.6715729,25 42,24.3284271 42,23.5 C42,22.6715729 42.6715729,22 43.5,22 C44.3284271,22 45,22.6715729 45,23.5 C45,24.3284271 44.3284271,25 43.5,25 Z M3.5,15 C2.67157288,15 2,14.3284271 2,13.5 C2,12.6715729 2.67157288,12 3.5,12 C4.32842712,12 5,12.6715729 5,13.5 C5,14.3284271 4.32842712,15 3.5,15 Z M23.5,15 C22.6715729,15 22,14.3284271 22,13.5 C22,12.6715729 22.6715729,12 23.5,12 C24.3284271,12 25,12.6715729 25,13.5 C25,14.3284271 24.3284271,15 23.5,15 Z M23.5,5 C22.6715729,5 22,4.32842712 22,3.5 C22,2.67157288 22.6715729,2 23.5,2 C24.3284271,2 25,2.67157288 25,3.5 C25,4.32842712 24.3284271,5 23.5,5 Z M33.5,15 C32.6715729,15 32,14.3284271 32,13.5 C32,12.6715729 32.6715729,12 33.5,12 C34.3284271,12 35,12.6715729 35,13.5 C35,14.3284271 34.3284271,15 33.5,15 Z M43.5,15 C42.6715729,15 42,14.3284271 42,13.5 C42,12.6715729 42.6715729,12 43.5,12 C44.3284271,12 45,12.6715729 45,13.5 C45,14.3284271 44.3284271,15 43.5,15 Z M43.5,5 C42.6715729,5 42,4.32842712 42,3.5 C42,2.67157288 42.6715729,2 43.5,2 C44.3284271,2 45,2.67157288 45,3.5 C45,4.32842712 44.3284271,5 43.5,5 Z M33.5,5 C32.6715729,5 32,4.32842712 32,3.5 C32,2.67157288 32.6715729,2 33.5,2 C34.3284271,2 35,2.67157288 35,3.5 C35,4.32842712 34.3284271,5 33.5,5 Z M13.5,5 C12.6715729,5 12,4.32842712 12,3.5 C12,2.67157288 12.6715729,2 13.5,2 C14.3284271,2 15,2.67157288 15,3.5 C15,4.32842712 14.3284271,5 13.5,5 Z M3.5,5 C2.67157288,5 2,4.32842712 2,3.5 C2,2.67157288 2.67157288,2 3.5,2 C4.32842712,2 5,2.67157288 5,3.5 C5,4.32842712 4.32842712,5 3.5,5 Z M13.5,15 C12.6715729,15 12,14.3284271 12,13.5 C12,12.6715729 12.6715729,12 13.5,12 C14.3284271,12 15,12.6715729 15,13.5 C15,14.3284271 14.3284271,15 13.5,15 Z M13.5,25 C12.6715729,25 12,24.3284271 12,23.5 C12,22.6715729 12.6715729,22 13.5,22 C14.3284271,22 15,22.6715729 15,23.5 C15,24.3284271 14.3284271,25 13.5,25 Z M13.5,35 C12.6715729,35 12,34.3284271 12,33.5 C12,32.6715729 12.6715729,32 13.5,32 C14.3284271,32 15,32.6715729 15,33.5 C15,34.3284271 14.3284271,35 13.5,35 Z M13.5,45 C12.6715729,45 12,44.3284271 12,43.5 C12,42.6715729 12.6715729,42 13.5,42 C14.3284271,42 15,42.6715729 15,43.5 C15,44.3284271 14.3284271,45 13.5,45 Z M3.5,45 C2.67157288,45 2,44.3284271 2,43.5 C2,42.6715729 2.67157288,42 3.5,42 C4.32842712,42 5,42.6715729 5,43.5 C5,44.3284271 4.32842712,45 3.5,45 Z M23.5,45 C22.6715729,45 22,44.3284271 22,43.5 C22,42.6715729 22.6715729,42 23.5,42 C24.3284271,42 25,42.6715729 25,43.5 C25,44.3284271 24.3284271,45 23.5,45 Z M33.5,45 C32.6715729,45 32,44.3284271 32,43.5 C32,42.6715729 32.6715729,42 33.5,42 C34.3284271,42 35,42.6715729 35,43.5 C35,44.3284271 34.3284271,45 33.5,45 Z" id="competences" fill="#82BE43"></path>
    </g>
</svg>