<?xml version="1.0" encoding="UTF-8"?>
<svg width="180px" height="55px" viewBox="0 0 180 55" version="1.1" xmlns="http://www.w3.org/2000/svg" xmlns:xlink="http://www.w3.org/1999/xlink">
    <!-- Generator: Sketch 49 (51002) - http://www.bohemiancoding.com/sketch -->
    <title>logo</title>
    <desc>Created with Sketch.</desc>
    <defs></defs>
    <g id="Symbols" stroke="none" stroke-width="1" fill="none" fill-rule="evenodd">
        <g id="Header" transform="translate(-20.000000, -25.000000)">
            <g id="#HEADER">
                <g id="logo" transform="translate(20.000000, 25.000000)">
                    <path d="M40.3867053,23.3466481 C38.8512821,23.3466481 37.5465951,23.8920798 36.4720405,24.9811309 C35.3974858,26.0719942 34.8605105,27.3845334 34.8605105,28.9193527 C34.8605105,30.4541719 35.3974858,31.7594629 36.4720405,32.8334135 C37.5465951,33.9079682 38.8512821,34.4449435 40.3867053,34.4449435 C41.9215246,34.4449435 43.2340638,33.9079682 44.323719,32.8334135 C45.4139782,31.7594629 45.9588058,30.4541719 45.9588058,28.9193527 L45.9588058,10.866955 C45.9588058,9.97662701 46.2505483,9.24032451 46.8346374,8.65683952 C47.4169143,8.07395854 48.1538208,7.78161202 49.0447529,7.78161202 C49.965282,7.78161202 50.7172891,8.06550224 51.3007741,8.63328267 C51.883655,9.20166712 52.1760016,9.9458219 52.1760016,10.866955 L52.1760016,28.9193527 C52.1760016,32.2052309 51.0319844,34.9825229 48.7445541,37.2536446 C46.4583318,39.5271824 43.6713755,40.6627433 40.3867053,40.6627433 C37.1014311,40.6627433 34.3229311,39.5271824 32.0512054,37.2536446 C29.7794796,34.9825229 28.6439188,32.2052309 28.6439188,28.9193527 C28.6439188,25.6032733 29.7722314,22.8096728 32.0282525,20.5379471 C34.2848777,18.2662213 37.070626,17.1294524 40.3867053,17.1294524 C41.3078385,17.1294524 42.0598455,17.4217989 42.6433305,18.0046799 C43.2262115,18.5887689 43.518558,19.340172 43.518558,20.2619091 C43.518558,21.1824383 43.2262115,21.926593 42.6433305,22.4949775 C42.0598455,23.0633619 41.3078385,23.3466481 40.3867053,23.3466481" id="Fill-37" fill="#2F3231"></path>
                    <path d="M74.5103093,25.4655564 L68.6162652,31.2212795 C67.9403648,31.8663747 67.2185589,32.1883183 66.4514513,32.1883183 C65.5919283,32.1883183 64.8465655,31.8663747 64.2177789,31.2212795 C63.5883882,30.5767883 63.2736929,29.8259893 63.2736929,28.9658623 C63.2736929,28.1975467 63.6113411,27.4763447 64.2872414,26.8004444 L67.6027167,23.5308748 C67.2034583,23.4698686 66.8042,23.4384594 66.4049416,23.4384594 C64.8695183,23.4384594 63.5654354,23.9766428 62.4908807,25.0505934 C61.4157221,26.1263562 60.8793508,27.4304391 60.8793508,28.9658623 C60.8793508,30.5006816 61.4157221,31.8126168 62.4908807,32.902272 C63.5654354,33.9925312 64.8695183,34.5373588 66.4049416,34.5373588 L70.5044371,34.5373588 C71.4249662,34.5373588 72.169121,34.8218531 72.7375055,35.3890295 C73.3052859,35.9574139 73.5897801,36.7009647 73.5897801,37.6220978 C73.5897801,38.543231 73.3052859,39.2970501 72.7375055,39.8793271 C72.169121,40.461 71.4249662,40.7533465 70.5044371,40.7533465 L66.4049416,40.7533465 C63.0894663,40.7533465 60.303718,39.6183897 58.0476969,37.3460599 C55.7904676,35.0743342 54.662759,32.2807336 54.662759,28.9658623 C54.662759,25.649783 55.7904676,22.8628267 58.0476969,20.6062015 C60.303718,18.3507844 63.0894663,17.2218677 66.4049416,17.2218677 C69.751826,17.2218677 72.5913322,18.4190388 74.9246682,20.813985 C75.5389583,21.4584762 75.8458013,22.1651816 75.8458013,22.9322892 C75.8458013,23.9446297 75.4012413,24.7896561 74.5103093,25.4655564" id="Fill-38" fill="#2F3231"></path>
                    <path d="M98.2254107,32.9240168 C98.9647333,33.8771631 99.9444565,34.3543402 101.174849,34.3543402 C102.216182,34.3543402 103.092618,33.9925312 103.799927,33.2707253 C104.504821,32.5501273 104.858173,31.6670475 104.858173,30.623298 L104.858173,20.2153995 C104.858173,19.2942663 105.15052,18.5507156 105.732193,17.9817271 C106.31447,17.4139466 107.068289,17.1294524 107.988818,17.1294524 C108.910555,17.1294524 109.654106,17.4139466 110.223698,17.9817271 C110.791479,18.5507156 111.073557,19.2942663 111.073557,20.2153995 L111.073557,30.623298 C111.073557,33.4168985 110.123431,35.7731873 108.220158,37.6909563 C106.31447,39.6117454 103.966637,40.5697239 101.174849,40.5697239 C98.7164803,40.5697239 96.567371,39.7875158 94.7257087,38.2218914 C92.8544494,39.7875158 90.702924,40.5697239 88.2789847,40.5697239 C85.4551831,40.5697239 83.090438,39.6183897 81.1871655,37.7145132 C79.283289,35.8118447 78.3325588,33.4477036 78.3325588,30.623298 L78.3325588,20.2153995 C78.3325588,18.1587054 79.3757043,17.1294524 81.4638075,17.1294524 C82.3855447,17.1294524 83.1296994,17.4139466 83.6968758,17.9817271 C84.2640523,18.5507156 84.5491505,19.2942663 84.5491505,20.2153995 L84.5491505,30.623298 C84.5491505,31.6670475 84.9103555,32.5501273 85.6321615,33.2707253 C86.3515514,33.9925312 87.2358392,34.3543402 88.2789847,34.3543402 C89.3233383,34.3543402 90.204606,33.9925312 90.926412,33.2707253 C91.648218,32.5501273 92.009423,31.6670475 92.009423,30.623298 L92.009423,20.2153995 C92.009423,19.2942663 92.2921051,18.5507156 92.8616976,17.9817271 C93.4294781,17.4139466 94.1730288,17.1294524 95.094766,17.1294524 C97.1816611,17.1294524 98.2254107,18.1587054 98.2254107,20.2153995 L98.2254107,32.9240168" id="Fill-39" fill="#2F3231"></path>
                    <path d="M133.455582,25.4655564 L127.560934,31.2212795 C126.885034,31.8663747 126.163228,32.1883183 125.397328,32.1883183 C124.536597,32.1883183 123.791839,31.8663747 123.163052,31.2212795 C122.533661,30.5767883 122.218966,29.8259893 122.218966,28.9658623 C122.218966,28.1975467 122.556614,27.4763447 123.232515,26.8004444 L126.547386,23.5308748 C126.148127,23.4698686 125.749473,23.4384594 125.350215,23.4384594 C123.814187,23.4384594 122.510105,23.9766428 121.43555,25.0505934 C120.361599,26.1263562 119.823416,27.4304391 119.823416,28.9658623 C119.823416,30.5006816 120.361599,31.8126168 121.43555,32.902272 C122.510105,33.9925312 123.814187,34.5373588 125.350215,34.5373588 L129.449106,34.5373588 C130.369635,34.5373588 131.113186,34.8218531 131.682779,35.3890295 C132.249351,35.9574139 132.534449,36.7009647 132.534449,37.6220978 C132.534449,38.543231 132.249351,39.2970501 131.682779,39.8793271 C131.113186,40.461 130.369635,40.7533465 129.449106,40.7533465 L125.350215,40.7533465 C122.034739,40.7533465 119.248991,39.6183897 116.991762,37.3460599 C114.735137,35.0743342 113.606824,32.2807336 113.606824,28.9658623 C113.606824,25.649783 114.735137,22.8628267 116.991762,20.6062015 C119.248991,18.3507844 122.034739,17.2218677 125.350215,17.2218677 C128.695891,17.2218677 131.536605,18.4190388 133.869337,20.813985 C134.483023,21.4584762 134.791074,22.1651816 134.791074,22.9322892 C134.791074,23.9446297 134.34591,24.7896561 133.455582,25.4655564" id="Fill-40" fill="#2F3231"></path>
                    <path d="M143.493216,27.122992 L143.493216,37.5755882 C143.493216,38.4979294 143.202077,39.2426882 142.618592,39.8104686 C142.035107,40.377645 141.282496,40.6627433 140.362571,40.6627433 C139.441438,40.6627433 138.696075,40.377645 138.128899,39.8104686 C137.560514,39.2426882 137.276624,38.4979294 137.276624,37.5755882 L137.276624,27.122992 C137.276624,24.3293915 138.235206,21.980955 140.154183,20.0776825 C142.073765,18.17441 144.430053,17.2218677 147.223654,17.2218677 C148.113982,17.2218677 148.850888,17.5142143 149.434373,18.0970952 C150.017254,18.6805802 150.309601,19.4168827 150.309601,20.3078148 C150.309601,22.2116913 149.251355,23.2548368 147.131239,23.4384594 C146.087489,23.5308748 145.221322,23.9071803 144.529717,24.5673761 C143.83932,25.2269678 143.493216,26.0798465 143.493216,27.122992" id="Fill-41" fill="#2F3231"></path>
                    <path d="M172.643909,30.7139012 C172.643909,33.5087098 171.692574,35.8656026 169.789906,37.7845797 C167.884821,39.7023487 165.536385,40.6627433 162.742784,40.6627433 C159.918983,40.6627433 157.554842,39.710805 155.650965,37.8063245 C153.747089,35.903656 152.795754,33.5395149 152.795754,30.7139012 L152.795754,14.8728272 C152.795754,13.9522981 153.079041,13.199687 153.648029,12.616806 C154.214601,12.0345291 154.959964,11.7415785 155.881701,11.7415785 C156.802231,11.7415785 157.554842,12.0345291 158.138327,12.616806 C158.721208,13.199687 159.012346,13.9522981 159.012346,14.8728272 L159.012346,17.313679 L169.55917,17.313679 C170.479095,17.313679 171.223854,17.5981733 171.792238,18.1665577 C172.359414,18.7343382 172.643909,19.4784929 172.643909,20.3996261 C172.643909,22.4877292 171.61526,23.5308748 169.55917,23.5308748 L159.012346,23.5308748 L159.012346,30.7139012 C159.012346,31.7594629 159.373551,32.6425426 160.095357,33.3625366 C160.815955,34.0843425 161.698431,34.4449435 162.742784,34.4449435 C163.786534,34.4449435 164.661761,34.0843425 165.367863,33.3625366 C166.073964,32.6425426 166.427317,31.7594629 166.427317,30.7139012 L166.427317,30.3007504 C166.427317,29.4104223 166.726912,28.6729118 167.325497,28.0900308 C167.924687,27.5071498 168.668238,27.2148033 169.55917,27.2148033 C170.44829,27.2148033 171.1858,27.5071498 171.768681,28.0900308 C172.352166,28.6729118 172.643909,29.4104223 172.643909,30.3007504 L172.643909,30.7139012" id="Fill-42" fill="#2F3231"></path>
                    <path d="M28.7266697,51.8335212 L28.5062018,51.8335212 C25.1260962,51.8335212 22.2980664,50.6943362 20.0209045,48.4183823 C17.7431385,46.1388043 16.6045575,43.3125866 16.6045575,39.933689 L16.6045575,36.735998 L16.5489875,12.2731176 C16.5489875,11.060242 16.117112,10.0134723 15.2545689,9.13220462 C14.3914219,8.25033289 13.3537125,7.80939702 12.1420449,7.80939702 C10.892324,7.80939702 9.83588995,8.24127256 8.97334691,9.10441962 C8.11019985,9.96877473 7.67832431,11.0246047 7.67832431,12.2731176 L7.67832431,36.0208362 C7.67832431,37.1231759 7.32919974,38.0122959 6.63155464,38.6930284 C5.93390953,39.3719488 5.03391715,39.7126171 3.93157748,39.7126171 C2.82984183,39.7126171 1.93890977,39.3719488 1.25998934,38.6930284 C0.579256845,38.0122959 0.239796629,37.1231759 0.239796629,36.0208362 L0.239796629,12.2731176 C0.239796629,8.93046136 1.38804195,6.11149192 3.68453259,3.81500128 C5.97921116,1.51911467 8.79878463,0.371473368 12.1420449,0.371473368 C15.2630252,0.371473368 18.0185724,1.46414869 20.4068743,3.65010335 C22.7939682,5.83605801 23.9881192,8.4895255 23.9881192,11.6117138 L24.0430852,39.933689 C24.0430852,41.1803899 24.4749607,42.2362199 25.3381078,43.101179 C26.2006508,43.963118 27.2570849,44.3955976 28.5062018,44.3955976 L28.7266697,44.3955976 C29.8284054,44.3955976 30.7283978,44.7441181 31.4266469,45.4417632 C32.123688,46.1388043 32.4728125,47.0406088 32.4728125,48.1429484 C32.4728125,49.2440801 32.123688,50.1344081 31.4266469,50.8151406 C30.7283978,51.493457 29.8284054,51.8335212 28.7266697,51.8335212" id="Fill-43" fill="#82BE43"></path>
                    <path d="M39.7023487,48.1677133 C39.4172504,47.9563057 39.0789983,47.7865756 38.7087329,47.7865756 C37.9688063,47.7865756 37.3877374,48.3573761 37.3877374,49.1075711 C37.3877374,49.8909873 37.9482696,50.4406471 38.7407461,50.4406471 C39.0789983,50.4406471 39.4492636,50.3029302 39.7023487,50.0703818 L39.7023487,51.6988244 C39.2801375,51.909628 38.8150408,52.0056674 38.349944,52.0056674 C36.7432462,52.0056674 35.4005059,50.8097044 35.4005059,49.1715974 C35.4005059,47.4283907 36.7323738,46.2221593 38.4345071,46.2221593 C38.878463,46.2221593 39.322419,46.3278631 39.7023487,46.5392707 L39.7023487,48.1677133" id="Fill-44" fill="#2F3231"></path>
                    <path d="M42.5243382,49.1190476 C42.5243382,49.8052162 42.9785626,50.3349433 43.7607707,50.3349433 C44.5435829,50.3349433 44.9984113,49.8052162 44.9984113,49.1190476 C44.9984113,48.4522076 44.5435829,47.8928834 43.7607707,47.8928834 C42.9785626,47.8928834 42.5243382,48.4522076 42.5243382,49.1190476 Z M47.0273203,49.1190476 C47.0273203,50.9582937 45.5051855,52.0056674 43.7607707,52.0056674 C42.0278324,52.0056674 40.4948252,50.9691661 40.4948252,49.1190476 C40.4948252,47.268929 42.01696,46.2221593 43.7607707,46.2221593 C45.5051855,46.2221593 47.0273203,47.268929 47.0273203,49.1190476 Z" id="Fill-45" fill="#2F3231"></path>
                    <path d="M49.8179007,47.0991989 L49.8390415,47.0991989 C50.2836015,46.4444393 50.8223889,46.2221593 51.5725838,46.2221593 C53.0312963,46.2221593 53.6129693,47.1420844 53.6129693,48.4745564 L53.6129693,51.8244609 L51.68916,51.8244609 L51.68916,49.1818658 C51.68916,48.6648232 51.7731191,47.7545625 50.8223889,47.7545625 C50.0401807,47.7545625 49.8179007,48.3368394 49.8179007,49.0133438 L49.8179007,51.8244609 L47.8940915,51.8244609 L47.8940915,46.4015538 L49.8179007,46.4015538 L49.8179007,47.0991989" id="Fill-46" fill="#2F3231"></path>
                    <path d="M58.4644719,47.798052 C58.1678972,47.6391943 57.7565584,47.5334905 57.4285746,47.5334905 C57.2062946,47.5334905 56.8257609,47.6283219 56.8257609,47.9031518 C56.8257609,48.2728131 57.4285746,48.326571 57.6925321,48.3779129 C58.5913164,48.5573073 59.2678208,48.9807266 59.2678208,49.9858187 C59.2678208,51.4125181 57.967362,52.0056674 56.7097887,52.0056674 C55.9378489,52.0056674 55.1767815,51.7821794 54.521418,51.381713 L55.2190631,50.0383686 C55.6098651,50.3138025 56.2658327,50.5886324 56.7411978,50.5886324 C56.9846186,50.5886324 57.3440115,50.4720562 57.3440115,50.1760856 C57.3440115,49.7538744 56.7411978,49.7321296 56.1383841,49.5732719 C55.5361745,49.4150182 54.9333608,49.1190476 54.9333608,48.1465726 C54.9333608,46.8147046 56.1383841,46.2221593 57.3228708,46.2221593 C57.9359528,46.2221593 58.5490349,46.3181988 59.1095671,46.5706799 L58.4644719,47.798052" id="Fill-47" fill="#2F3231"></path>
                    <polyline id="Fill-48" fill="#2F3231" points="62.4069217 51.8244609 60.4831125 51.8244609 60.4831125 47.9877148 59.859158 47.9877148 59.859158 46.4015538 60.4831125 46.4015538 60.4831125 44.7737152 62.4069217 44.7737152 62.4069217 46.4015538 63.4953689 46.4015538 63.4953689 47.9877148 62.4069217 47.9877148 62.4069217 51.8244609"></polyline>
                    <path d="M66.0322602,47.2906738 L66.0527969,47.2906738 C66.4230622,46.6238338 67.0578891,46.3278631 67.8080841,46.3278631 L68.1777454,46.3278631 L68.1777454,48.1779817 C67.9137879,48.0293923 67.6607028,47.9985872 67.3635241,47.9985872 C66.2962177,47.9985872 66.0322602,48.7058967 66.0322602,49.6366942 L66.0322602,51.8244609 L64.108451,51.8244609 L64.108451,46.4015538 L66.0322602,46.4015538 L66.0322602,47.2906738" id="Fill-49" fill="#2F3231"></path>
                    <path d="M70.7883273,46.4015538 L70.7883273,49.2996501 C70.7883273,49.9858187 70.9580574,50.4720562 71.750534,50.4720562 C72.5436145,50.4720562 72.7121366,49.9858187 72.7121366,49.2996501 L72.7121366,46.4015538 L74.6365498,46.4015538 L74.6365498,49.6674993 C74.6365498,51.4554036 73.3783725,52.0056674 71.750534,52.0056674 C70.1226954,52.0056674 68.8639141,51.4554036 68.8639141,49.6674993 L68.8639141,46.4015538 L70.7883273,46.4015538" id="Fill-50" fill="#2F3231"></path>
                    <path d="M79.7731506,48.1677133 C79.4880524,47.9563057 79.1498002,47.7865756 78.7789309,47.7865756 C78.0396083,47.7865756 77.4579353,48.3573761 77.4579353,49.1075711 C77.4579353,49.8909873 78.0184675,50.4406471 78.811548,50.4406471 C79.1498002,50.4406471 79.5194615,50.3029302 79.7731506,50.0703818 L79.7731506,51.6988244 C79.3503354,51.909628 78.8858427,52.0056674 78.420142,52.0056674 C76.8134441,52.0056674 75.4707038,50.8097044 75.4707038,49.1715974 C75.4707038,47.4283907 76.8031758,46.2221593 78.504705,46.2221593 C78.948661,46.2221593 79.392617,46.3278631 79.7731506,46.5392707 L79.7731506,48.1677133" id="Fill-51" fill="#2F3231"></path>
                    <polyline id="Fill-52" fill="#2F3231" points="83.0705053 51.8244609 81.1466961 51.8244609 81.1466961 47.9877148 80.5233456 47.9877148 80.5233456 46.4015538 81.1466961 46.4015538 81.1466961 44.7737152 83.0705053 44.7737152 83.0705053 46.4015538 84.1601605 46.4015538 84.1601605 47.9877148 83.0705053 47.9877148 83.0705053 51.8244609"></polyline>
                    <path d="M84.7726386,51.8244609 L86.6952397,51.8244609 L86.6952397,46.4015538 L84.7726386,46.4015538 L84.7726386,51.8244609 Z M86.81242,44.3194908 C86.81242,44.9108281 86.3255784,45.3976696 85.7336371,45.3976696 C85.1422999,45.3976696 84.6560624,44.9108281 84.6560624,44.3194908 C84.6560624,43.7269455 85.1422999,43.241312 85.7336371,43.241312 C86.3255784,43.241312 86.81242,43.7269455 86.81242,44.3194908 Z" id="Fill-53" fill="#2F3231"></path>
                    <path d="M89.5903159,49.1190476 C89.5903159,49.8052162 90.0463523,50.3349433 90.8285605,50.3349433 C91.6107686,50.3349433 92.064993,49.8052162 92.064993,49.1190476 C92.064993,48.4522076 91.6107686,47.8928834 90.8285605,47.8928834 C90.0463523,47.8928834 89.5903159,48.4522076 89.5903159,49.1190476 Z M94.094506,49.1190476 C94.094506,50.9582937 92.5723712,52.0056674 90.8285605,52.0056674 C89.0944141,52.0056674 87.5614069,50.9691661 87.5614069,49.1190476 C87.5614069,47.268929 89.0835417,46.2221593 90.8285605,46.2221593 C92.5723712,46.2221593 94.094506,47.268929 94.094506,49.1190476 Z" id="Fill-54" fill="#2F3231"></path>
                    <path d="M96.8838784,47.0991989 L96.9068312,47.0991989 C97.3495791,46.4444393 97.8889705,46.2221593 98.6403736,46.2221593 C100.099086,46.2221593 100.680155,47.1420844 100.680155,48.4745564 L100.680155,51.8244609 L98.7551377,51.8244609 L98.7551377,49.1818658 C98.7551377,48.6648232 98.8403048,47.7545625 97.8889705,47.7545625 C97.1067624,47.7545625 96.8838784,48.3368394 96.8838784,49.0133438 L96.8838784,51.8244609 L94.9618812,51.8244609 L94.9618812,46.4015538 L96.8838784,46.4015538 L96.8838784,47.0991989" id="Fill-55" fill="#2F3231"></path>
                    <path d="M109.358135,48.326571 C109.263304,47.8083204 108.787335,47.4700682 108.269084,47.4700682 C107.709156,47.4700682 107.244059,47.7660389 107.127483,48.326571 L109.358135,48.326571 Z M107.952577,45.5988089 L107.09547,44.9748544 L108.585591,43.157353 L109.75981,44.0017754 L107.952577,45.5988089 Z M111.144832,49.436763 L107.09547,49.436763 C107.09547,50.2177631 107.507413,50.6417864 108.301097,50.6417864 C108.713644,50.6417864 109.009615,50.5040694 109.220418,50.1440724 L111.069933,50.1440724 C110.923156,50.7776912 110.542018,51.2446 110.044908,51.550235 C109.548402,51.8570781 108.934716,52.0056674 108.310762,52.0056674 C106.514401,52.0056674 105.171057,50.9903069 105.171057,49.1190476 C105.171057,47.3118145 106.409301,46.2221593 108.173649,46.2221593 C110.05578,46.2221593 111.144832,47.3849012 111.144832,49.2350197 L111.144832,49.436763 Z" id="Fill-56" fill="#2F3231"></path>
                    <path d="M115.932308,48.1677133 C115.647814,47.9563057 115.308353,47.7865756 114.938692,47.7865756 C114.198765,47.7865756 113.618301,48.3573761 113.618301,49.1075711 C113.618301,49.8909873 114.177625,50.4406471 114.971309,50.4406471 C115.308353,50.4406471 115.678619,50.3029302 115.932308,50.0703818 L115.932308,51.6988244 C115.510097,51.909628 115.045,52.0056674 114.578695,52.0056674 C112.971393,52.0056674 111.629861,50.8097044 111.629861,49.1715974 C111.629861,47.4283907 112.962333,46.2221593 114.663862,46.2221593 C115.108422,46.2221593 115.551774,46.3278631 115.932308,46.5392707 L115.932308,48.1677133" id="Fill-57" fill="#2F3231"></path>
                    <path d="M118.753693,49.1190476 C118.753693,49.8052162 119.209126,50.3349433 119.991334,50.3349433 C120.774146,50.3349433 121.22837,49.8052162 121.22837,49.1190476 C121.22837,48.4522076 120.774146,47.8928834 119.991334,47.8928834 C119.209126,47.8928834 118.753693,48.4522076 118.753693,49.1190476 Z M123.258487,49.1190476 C123.258487,50.9582937 121.735145,52.0056674 119.991334,52.0056674 C118.257792,52.0056674 116.72418,50.9691661 116.72418,49.1190476 C116.72418,47.268929 118.246919,46.2221593 119.991334,46.2221593 C121.735145,46.2221593 123.258487,47.268929 123.258487,49.1190476 Z" id="Fill-58" fill="#2F3231"></path>
                    <polygon id="Fill-59" fill="#2F3231" points="124.123447 51.8244609 126.046652 51.8244609 126.046652 43.0504412 124.123447 43.0504412"></polygon>
                    <path d="M128.94354,49.1190476 C128.94354,49.8052162 129.398368,50.3349433 130.180577,50.3349433 C130.962785,50.3349433 131.417009,49.8052162 131.417009,49.1190476 C131.417009,48.4522076 130.962785,47.8928834 130.180577,47.8928834 C129.398368,47.8928834 128.94354,48.4522076 128.94354,49.1190476 Z M133.447126,49.1190476 C133.447126,50.9582937 131.923783,52.0056674 130.180577,52.0056674 C128.44643,52.0056674 126.913423,50.9691661 126.913423,49.1190476 C126.913423,47.268929 128.435558,46.2221593 130.180577,46.2221593 C131.923783,46.2221593 133.447126,47.268929 133.447126,49.1190476 Z" id="Fill-60" fill="#2F3231"></path>
                    <path d="M135.929655,49.076162 C135.929655,49.7635387 136.38388,50.2914537 137.166088,50.2914537 C137.948296,50.2914537 138.40252,49.7635387 138.40252,49.076162 C138.40252,48.4105301 137.948296,47.8506019 137.166088,47.8506019 C136.38388,47.8506019 135.929655,48.4105301 135.929655,49.076162 Z M140.264115,51.2959419 C140.264115,53.6020969 139.12191,54.5316863 137.12441,54.5316863 C135.876502,54.5316863 134.205777,53.8871951 134.037255,52.4598918 L136.194217,52.4598918 C136.246163,52.6489506 136.38388,52.7866675 136.55361,52.8724386 C136.722132,52.9563976 136.923271,52.9980751 137.102062,52.9980751 C138.138563,52.9980751 138.339702,52.3227788 138.339702,51.4451353 L138.339702,51.1908421 C137.842592,51.687952 137.335214,51.9301647 136.615824,51.9301647 C135.030871,51.9301647 133.94182,50.7263494 133.94182,49.1619331 C133.94182,47.575168 135.06228,46.2221593 136.722132,46.2221593 C137.356355,46.2221593 137.938028,46.4335669 138.319165,46.9741664 L138.339702,46.9741664 L138.339702,46.4015538 L140.264115,46.4015538 L140.264115,51.2959419 Z" id="Fill-61" fill="#2F3231"></path>
                    <path d="M141.468535,51.8244609 L143.391136,51.8244609 L143.391136,46.4015538 L141.468535,46.4015538 L141.468535,51.8244609 Z M143.508316,44.3194908 C143.508316,44.9108281 143.021475,45.3976696 142.430137,45.3976696 C141.838196,45.3976696 141.351959,44.9108281 141.351959,44.3194908 C141.351959,43.7269455 141.838196,43.241312 142.430137,43.241312 C143.021475,43.241312 143.508316,43.7269455 143.508316,44.3194908 Z" id="Fill-62" fill="#2F3231"></path>
                    <path d="M146.33091,49.1190476 C146.33091,49.8052162 146.785134,50.3349433 147.567342,50.3349433 C148.350154,50.3349433 148.803775,49.8052162 148.803775,49.1190476 C148.803775,48.4522076 148.350154,47.8928834 147.567342,47.8928834 C146.785134,47.8928834 146.33091,48.4522076 146.33091,49.1190476 Z M150.66537,54.5316863 L148.740956,54.5316863 L148.740956,51.3068143 C148.339282,51.7821794 147.683918,52.0056674 147.060568,52.0056674 C145.442998,52.0056674 144.343074,50.6943362 144.343074,49.130524 C144.343074,47.5854364 145.473803,46.2221593 147.081105,46.2221593 C147.716536,46.2221593 148.38096,46.4752444 148.72042,47.0158439 L148.740956,47.0158439 L148.740956,46.4015538 L150.66537,46.4015538 L150.66537,54.5316863 Z" id="Fill-63" fill="#2F3231"></path>
                    <path d="M153.761585,46.4015538 L153.761585,49.2996501 C153.761585,49.9858187 153.930107,50.4720562 154.723188,50.4720562 C155.516872,50.4720562 155.685998,49.9858187 155.685998,49.2996501 L155.685998,46.4015538 L157.609204,46.4015538 L157.609204,49.6674993 C157.609204,51.4554036 156.352234,52.0056674 154.723188,52.0056674 C153.095349,52.0056674 151.83838,51.4554036 151.83838,49.6674993 L151.83838,46.4015538 L153.761585,46.4015538" id="Fill-64" fill="#2F3231"></path>
                    <path d="M162.620168,48.326571 C162.524128,47.8083204 162.048763,47.4700682 161.531117,47.4700682 C160.970585,47.4700682 160.505488,47.7660389 160.388912,48.326571 L162.620168,48.326571 Z M164.406864,49.436763 L160.356294,49.436763 C160.356294,50.2177631 160.769445,50.6417864 161.56313,50.6417864 C161.975073,50.6417864 162.271043,50.5040694 162.482451,50.1440724 L164.331966,50.1440724 C164.18398,50.7776912 163.803446,51.2446 163.306337,51.550235 C162.810435,51.8570781 162.196145,52.0056674 161.572794,52.0056674 C159.776434,52.0056674 158.433089,50.9903069 158.433089,49.1190476 C158.433089,47.3118145 159.67073,46.2221593 161.435077,46.2221593 C163.317813,46.2221593 164.406864,47.3849012 164.406864,49.2350197 L164.406864,49.436763 Z" id="Fill-65" fill="#2F3231"></path>
                    <path d="M179.648145,13.6520993 C179.648145,17.9050163 176.200993,21.3533764 171.946868,21.3533764 C167.69395,21.3533764 164.24559,17.9050163 164.24559,13.6520993 C164.24559,9.39918223 167.69395,5.95082214 171.946868,5.95082214 C176.200993,5.95082214 179.648145,9.39918223 179.648145,13.6520993" id="Fill-66" fill="#82BE43"></path>
                    <path d="M168.84884,13.1368687 C168.665821,13.0414333 168.486427,12.9937156 168.310657,12.9937156 C168.220053,12.9937156 168.145759,13.0124403 168.088981,13.0486816 C168.032203,13.0855269 168.004418,13.1350567 168.004418,13.1966669 C168.004418,13.2298881 168.008646,13.256465 168.01831,13.2763978 C168.026766,13.2963305 168.046699,13.3162632 168.078712,13.3343838 C168.108913,13.3525045 168.155423,13.3688131 168.215221,13.3833096 C168.275623,13.3978061 168.355958,13.4165308 168.45381,13.4382756 C168.72864,13.4932416 168.932799,13.5910931 169.0681,13.7318301 C169.204005,13.8719632 169.271051,14.0519617 169.271051,14.2718256 C169.271051,14.4361195 169.238434,14.5841048 169.171992,14.7157815 C169.106153,14.8480623 169.014946,14.9579943 168.89837,15.0479935 C168.781794,15.1373887 168.639849,15.2062472 168.476159,15.256381 C168.310657,15.3059108 168.130658,15.3306757 167.933143,15.3306757 C167.552609,15.3306757 167.178116,15.2225558 166.809059,15.006316 L167.171472,14.3044427 C167.448718,14.4947096 167.711467,14.590145 167.960324,14.590145 C168.051531,14.590145 168.127034,14.5702123 168.184416,14.5291388 C168.24361,14.4892734 168.273207,14.4379316 168.273207,14.3757173 C168.273207,14.339476 168.268375,14.3092749 168.258711,14.2857181 C168.24965,14.2615572 168.230926,14.2398124 168.201329,14.2198797 C168.17294,14.199343 168.12945,14.1812223 168.072672,14.1649137 C168.015894,14.1486051 167.941599,14.1310885 167.850996,14.1129679 C167.544153,14.0501496 167.329121,13.9583383 167.206505,13.8357219 C167.083889,13.7137095 167.022882,13.5445834 167.022882,13.3283436 C167.022882,13.171298 167.051875,13.0299569 167.109861,12.9037163 C167.169056,12.7774758 167.252411,12.670564 167.362343,12.5829808 C167.472275,12.4947936 167.603951,12.4271432 167.759789,12.3800295 C167.915626,12.3323118 168.087773,12.3087549 168.279248,12.3087549 C168.589111,12.3087549 168.891122,12.3685531 169.184072,12.4893574 L168.84884,13.1368687" id="Fill-67" fill="#FFFFFE"></path>
                    <path d="M171.991565,13.8272656 C171.991565,13.7396824 171.975257,13.6569314 171.944451,13.5778046 C171.913646,13.4992818 171.868949,13.4310273 171.809755,13.3724372 C171.752373,13.3144511 171.683514,13.2673374 171.604991,13.2329082 C171.525864,13.1978749 171.440697,13.1803583 171.350094,13.1803583 C171.261303,13.1803583 171.17976,13.1966669 171.103049,13.2298881 C171.026338,13.2631093 170.959292,13.3084109 170.902514,13.367001 C170.84634,13.4255911 170.79983,13.4944496 170.766005,13.5723684 C170.730368,13.6508912 170.714059,13.7342462 170.714059,13.8218294 C170.714059,13.9100166 170.730368,13.9921635 170.762381,14.0688743 C170.795602,14.145585 170.841508,14.2126314 170.900702,14.2694095 C170.958084,14.3255835 171.026338,14.3714892 171.105465,14.4059184 C171.184592,14.4409517 171.267343,14.4578643 171.354322,14.4578643 C171.443113,14.4578643 171.525864,14.4421597 171.602575,14.4089385 C171.679286,14.3757173 171.745124,14.3304157 171.801902,14.2718256 C171.858076,14.2132355 171.904586,14.145585 171.939619,14.0688743 C171.974049,13.9921635 171.991565,13.9118286 171.991565,13.8272656 Z M170.74124,16.6299264 L169.747624,16.6299264 L169.747624,12.4126467 L170.74124,12.4126467 L170.74124,12.7255299 C170.953252,12.4585523 171.24137,12.3250635 171.606803,12.3250635 C171.808547,12.3250635 171.996397,12.3643249 172.169752,12.4428478 C172.343106,12.5213706 172.494111,12.6282824 172.62156,12.7641873 C172.750216,12.8988842 172.849276,13.0583459 172.921155,13.2407605 C172.991825,13.423175 173.027462,13.6194821 173.027462,13.8272656 C173.027462,14.0362571 172.991825,14.2295441 172.921155,14.4089385 C172.849276,14.5877289 172.751424,14.7453786 172.625184,14.8800755 C172.498943,15.0159804 172.349146,15.1216842 172.178208,15.1989989 C172.006062,15.2757097 171.819419,15.3137631 171.618884,15.3137631 C171.267343,15.3137631 170.974997,15.1929587 170.74124,14.951954 L170.74124,16.6299264 Z" id="Fill-68" fill="#FFFFFE"></path>
                    <path d="M173.564438,12.4126467 L174.557449,12.4126467 L174.557449,12.8735153 C174.663757,12.7055972 174.793622,12.5763366 174.947043,12.4869413 C175.100465,12.3969421 175.279859,12.3522445 175.483415,12.3522445 C175.509388,12.3522445 175.537777,12.3522445 175.56979,12.3522445 C175.600595,12.3522445 175.635628,12.3564726 175.676098,12.3631169 L175.676098,13.312035 C175.545025,13.2461967 175.402476,13.2135795 175.249054,13.2135795 C175.017714,13.2135795 174.845568,13.2818339 174.729596,13.4189469 C174.615436,13.5560598 174.557449,13.755991 174.557449,14.0199485 L174.557449,15.2261799 L173.564438,15.2261799 L173.564438,12.4126467" id="Fill-69" fill="#FFFFFE"></path>
                    <polygon id="Fill-70" fill="#FFFFFE" points="176.092269 15.2261799 177.085884 15.2261799 177.085884 10.6742721 176.092269 10.6742721"></polygon>
                </g>
            </g>
        </g>
    </g>
</svg>