<svg xmlns="http://www.w3.org/2000/svg" width="20" height="20" viewBox="0 0 20 20"><path fill="#FFF" fill-rule="evenodd" d="M10 8.586l-3.53-3.53a1.003 1.003 0 0 0-1.42-.006 1.001 1.001 0 0 0 .005 1.42L8.585 10l-3.53 3.53a1.003 1.003 0 0 0-.005 1.42 1.001 1.001 0 0 0 1.42-.005l3.53-3.53 3.53 3.53a1.003 1.003 0 0 0 1.42.005 1.001 1.001 0 0 0-.005-1.42L11.415 10l3.53-3.53a1.003 1.003 0 0 0 .005-1.42 1.001 1.001 0 0 0-1.42.005L10 8.585zM.707 14.849C.317 14.459 0 13.697 0 13.143V6.857c0-.552.315-1.314.707-1.706L5.15.707C5.541.317 6.303 0 6.857 0h6.286c.552 0 1.314.315 1.706.707l4.444 4.444c.39.39.707 1.152.707 1.706v6.286c0 .552-.315 1.314-.707 1.706l-4.444 4.444c-.39.39-1.152.707-1.706.707H6.857c-.552 0-1.314-.315-1.706-.707L.707 14.85z"/></svg>