<?xml version="1.0" encoding="UTF-8"?>
<svg width="140px" height="42px" viewBox="0 0 140 42" version="1.1" xmlns="http://www.w3.org/2000/svg" xmlns:xlink="http://www.w3.org/1999/xlink">
    <!-- Generator: Sketch 50.2 (55047) - http://www.bohemiancoding.com/sketch -->
    <title>logo</title>
    <desc>Created with Sketch.</desc>
    <defs></defs>
    <g id="Front" stroke="none" stroke-width="1" fill="none" fill-rule="evenodd">
        <g id="fzfe" transform="translate(-87.000000, -2311.000000)">
            <g id="Group-Copy" transform="translate(20.000000, 2245.000000)">
                <g id="logo" transform="translate(67.000000, 66.000000)">
                    <path d="M31.1332784,18.1061392 C29.9390604,18.1061392 28.9243038,18.5303638 28.0885391,19.3774036 C27.2527744,20.2258528 26.8351269,21.2467167 26.8351269,22.4404649 C26.8351269,23.6342132 27.2527744,24.6494395 28.0885391,25.4847345 C28.9243038,26.3204992 29.9390604,26.7381467 31.1332784,26.7381467 C32.3270267,26.7381467 33.3478906,26.3204992 34.1954002,25.4847345 C35.0433796,24.6494395 35.4671344,23.6342132 35.4671344,22.4404649 L35.4671344,8.39971124 C35.4671344,7.70723388 35.6940452,7.13455416 36.1483367,6.6807325 C36.6012188,6.22738063 37.1743683,6 37.8673154,6 C38.5832825,6 39.1681769,6.2208035 39.6219986,6.6624105 C40.0753504,7.1044873 40.3027311,7.68327435 40.3027311,8.39971124 L40.3027311,22.4404649 C40.3027311,24.996148 39.4129399,27.156264 37.6338275,28.922692 C35.8556546,30.6909992 33.6880219,31.5742132 31.1332784,31.5742132 C28.5780652,31.5742132 26.4170096,30.6909992 24.6501118,28.922692 C22.883214,27.156264 22,24.996148 22,22.4404649 C22,19.8612921 22.8775765,17.6884917 24.6322596,15.9215939 C26.3874125,14.1546961 28.5541056,13.2705425 31.1332784,13.2705425 C31.8497153,13.2705425 32.4346097,13.4979231 32.8884314,13.951275 C33.3417832,14.4055665 33.5691639,14.9899911 33.5691639,15.7068977 C33.5691639,16.4228648 33.3417832,17.0016519 32.8884314,17.4437287 C32.4346097,17.8858055 31.8497153,18.1061392 31.1332784,18.1061392" id="Fill-37" fill="#344D1B"></path>
                    <path d="M58.4369835,19.4117578 L53.852727,23.8884314 C53.3270267,24.3901721 52.7656221,24.6405727 52.1689828,24.6405727 C51.500465,24.6405727 50.9207384,24.3901721 50.4316821,23.8884314 C49.942156,23.3871605 49.697393,22.8032057 49.697393,22.134218 C49.697393,21.5366392 49.9600082,20.9757043 50.4857085,20.4500041 L53.0644115,17.9070055 C52.7538772,17.8595562 52.4433429,17.8351269 52.1328086,17.8351269 C50.9385906,17.8351269 49.9243038,18.2537139 49.0885391,19.0890089 C48.2523046,19.9257132 47.8351269,20.9399999 47.8351269,22.134218 C47.8351269,23.3279663 48.2523046,24.3483604 49.0885391,25.19587 C49.9243038,26.0438494 50.9385906,26.4676042 52.1328086,26.4676042 L55.3213052,26.4676042 C56.0372723,26.4676042 56.6160593,26.6888775 57.0581361,27.1300147 C57.4997431,27.5720915 57.7210164,28.1504087 57.7210164,28.8668456 C57.7210164,29.5832825 57.4997431,30.1695863 57.0581361,30.6224684 C56.6160593,31.0748806 56.0372723,31.3022613 55.3213052,31.3022613 L52.1328086,31.3022613 C49.5541056,31.3022613 47.3874125,30.4195171 45.6327294,28.6521495 C43.8771067,26.8852517 43,24.7124513 43,22.134218 C43,19.5550452 43.8771067,17.3874125 45.6327294,15.6322596 C47.3874125,13.8780463 49.5541056,13 52.1328086,13 C54.735941,13 56.9444458,13.9311331 58.7592627,15.793869 C59.2370438,16.2951399 59.4756995,16.8447997 59.4756995,17.4414389 C59.4756995,18.2288148 59.1299307,18.8860576 58.4369835,19.4117578" id="Fill-38" fill="#344D1B"></path>
                    <path d="M76.4722181,25.2846612 C77.0472468,26.0259972 77.8092538,26.397135 78.7662255,26.397135 C79.5761516,26.397135 80.2578237,26.115728 80.8079532,25.5543233 C81.3562036,24.9938583 81.6310335,24.3070184 81.6310335,23.4952132 L81.6310335,15.400181 C81.6310335,14.6837441 81.8584141,14.1054269 82.3108264,13.6628803 C82.7637085,13.2212733 83.3500123,13 84.0659794,13 C84.7828861,13 85.3612033,13.2212733 85.8042197,13.6628803 C86.2458267,14.1054269 86.4652208,14.6837441 86.4652208,15.400181 L86.4652208,23.4952132 C86.4652208,25.6680136 85.7262338,27.5006827 84.2459107,28.9922808 C82.7637085,30.4862279 80.9376166,31.2313223 78.7662255,31.2313223 C76.8541612,31.2313223 75.1826317,30.6229382 73.7502277,29.4052303 C72.2948038,30.6229382 70.6213951,31.2313223 68.7361091,31.2313223 C66.5398189,31.2313223 64.7005727,30.4913957 63.2202497,29.0106028 C61.7394568,27.5307496 61,25.6919732 61,23.4952132 L61,15.400181 C61,13.8005301 61.8113354,13 63.4354156,13 C64.1523223,13 64.7311094,13.2212733 65.1722466,13.6628803 C65.6133838,14.1054269 65.8351269,14.6837441 65.8351269,15.400181 L65.8351269,23.4952132 C65.8351269,24.3070184 66.1160641,24.9938583 66.6774687,25.5543233 C67.2369942,26.115728 67.9247736,26.397135 68.7361091,26.397135 C69.5483841,26.397135 70.2338145,26.115728 70.7952191,25.5543233 C71.3566238,24.9938583 71.637561,24.3070184 71.637561,23.4952132 L71.637561,15.400181 C71.637561,14.6837441 71.8574249,14.1054269 72.3004413,13.6628803 C72.7420483,13.2212733 73.3203656,13 74.0372723,13 C75.6604129,13 76.4722181,13.8005301 76.4722181,15.400181 L76.4722181,25.2846612" id="Fill-39" fill="#344D1B"></path>
                    <path d="M103.437923,19.4117578 L98.8531968,23.8884314 C98.3274965,24.3901721 97.7660919,24.6405727 97.1703922,24.6405727 C96.5009348,24.6405727 95.921678,24.3901721 95.4326217,23.8884314 C94.9430956,23.3871605 94.6983326,22.8032057 94.6983326,22.134218 C94.6983326,21.5366392 94.9609478,20.9757043 95.4866481,20.4500041 L98.0648813,17.9070055 C97.754347,17.8595562 97.4442825,17.8351269 97.1337482,17.8351269 C95.9390604,17.8351269 94.9247736,18.2537139 94.0890089,19.0890089 C93.2537139,19.9257132 92.8351269,20.9399999 92.8351269,22.134218 C92.8351269,23.3279663 93.2537139,24.3483604 94.0890089,25.19587 C94.9247736,26.0438494 95.9390604,26.4676042 97.1337482,26.4676042 L100.321775,26.4676042 C101.037742,26.4676042 101.616059,26.6888775 102.059076,27.1300147 C102.499743,27.5720915 102.721486,28.1504087 102.721486,28.8668456 C102.721486,29.5832825 102.499743,30.1695863 102.059076,30.6224684 C101.616059,31.0748806 101.037742,31.3022613 100.321775,31.3022613 L97.1337482,31.3022613 C94.5550452,31.3022613 92.3883521,30.4195171 90.6327294,28.6521495 C88.8775765,26.8852517 88,24.7124513 88,22.134218 C88,19.5550452 88.8775765,17.3874125 90.6327294,15.6322596 C92.3883521,13.8780463 94.5550452,13 97.1337482,13 C99.735941,13 101.945385,13.9311331 103.759732,15.793869 C104.237044,16.2951399 104.476639,16.8447997 104.476639,17.4414389 C104.476639,18.2288148 104.1304,18.8860576 103.437923,19.4117578" id="Fill-40" fill="#344D1B"></path>
                    <path d="M111.835127,20.7008745 L111.835127,28.8306714 C111.835127,29.5480479 111.608686,30.1273048 111.154864,30.5689118 C110.701043,31.010049 110.115678,31.2317921 109.400181,31.2317921 C108.683744,31.2317921 108.104018,31.010049 107.66288,30.5689118 C107.220804,30.1273048 107,29.5480479 107,28.8306714 L107,20.7008745 C107,18.528074 107.745564,16.7015123 109.238102,15.2211893 C110.731109,13.7408662 112.563778,13 114.736579,13 C115.429056,13 116.002206,13.2273806 116.456027,13.6807325 C116.909379,14.1345542 117.13676,14.7072339 117.13676,15.400181 C117.13676,16.8809739 116.31368,17.6923093 114.6647,17.8351269 C113.852895,17.9070055 113.179209,18.1996876 112.641295,18.7131731 C112.104319,19.2261889 111.835127,19.889539 111.835127,20.7008745" id="Fill-41" fill="#344D1B"></path>
                    <path d="M134.437453,23.756251 C134.437453,25.929991 133.697527,27.7631299 132.217673,29.2556676 C130.735941,30.7472657 128.909379,31.4942392 126.736579,31.4942392 C124.540289,31.4942392 122.701512,30.7538428 121.220719,29.2725802 C119.739927,27.7927269 119,25.9539505 119,23.756251 L119,11.4354156 C119,10.7194485 119.220334,10.1340844 119.66288,9.6807325 C120.103548,9.22785042 120.683274,9 121.400181,9 C122.116148,9 122.701512,9.22785042 123.155334,9.6807325 C123.608686,10.1340844 123.835127,10.7194485 123.835127,11.4354156 L123.835127,13.333856 L132.038212,13.333856 C132.753709,13.333856 133.332966,13.5551293 133.775043,13.997206 C134.21618,14.438813 134.437453,15.0176001 134.437453,15.734037 C134.437453,17.3581172 133.637393,18.1694526 132.038212,18.1694526 L123.835127,18.1694526 L123.835127,23.756251 C123.835127,24.5694656 124.116064,25.2563054 124.677469,25.8163007 C125.237934,26.3777053 125.924304,26.6581728 126.736579,26.6581728 C127.548384,26.6581728 128.229117,26.3777053 128.778307,25.8163007 C129.327497,25.2563054 129.602326,24.5694656 129.602326,23.756251 L129.602326,23.4349114 C129.602326,22.7424341 129.835345,22.1688148 130.300911,21.7154629 C130.766947,21.262111 131.345265,21.0347304 132.038212,21.0347304 C132.72975,21.0347304 133.303369,21.262111 133.756721,21.7154629 C134.210542,22.1688148 134.437453,22.7424341 134.437453,23.4349114 L134.437453,23.756251" id="Fill-42" fill="#344D1B"></path>
                    <path d="M22.1564569,40.0260372 L21.9849818,40.0260372 C19.3560108,40.0260372 17.156432,39.1400045 15.3853061,37.3698181 C13.6137103,35.596813 12.7281474,33.3986436 12.7281474,30.7706122 L12.7281474,28.2835191 L12.6849262,9.25683444 C12.6849262,8.31348672 12.349023,7.49933253 11.6781562,6.81390209 C11.0068196,6.12800185 10.1997124,5.78505173 9.25730424,5.78505173 C8.28529904,5.78505173 7.46362814,6.12095493 6.79276133,6.79229153 C6.12142472,7.46456772 5.78552153,8.28576883 5.78552153,9.25683444 L5.78552153,27.7272822 C5.78552153,28.5846575 5.5139802,29.2761953 4.97136734,29.8056539 C4.42875448,30.3337031 3.7287604,30.5986673 2.87138511,30.5986673 C2.0144796,30.5986673 1.32153244,30.3337031 0.79348322,29.8056539 C0.264024612,29.2761953 0,28.5846575 0,27.7272822 L0,9.25683444 C0,6.65699066 0.893079693,4.46445888 2.67923908,2.67829949 C4.46398908,0.892609898 6.65699066,0 9.25730424,0 C11.6847334,0 13.8279367,0.849858582 15.6855049,2.55004554 C17.5421335,4.2502325 18.4709176,6.31404055 18.4709176,8.74240926 L18.5136689,30.7706122 C18.5136689,31.7402684 18.8495721,32.5614695 19.5209087,33.2342155 C20.1917755,33.9046125 21.0134464,34.2409855 21.9849818,34.2409855 L22.1564569,34.2409855 C23.0133624,34.2409855 23.7133564,34.512057 24.2564391,35.0546699 C24.7985822,35.596813 25.0701235,36.2982164 25.0701235,37.1555917 C25.0701235,38.0120274 24.7985822,38.7045048 24.2564391,39.2339634 C23.7133564,39.7615428 23.0133624,40.0260372 22.1564569,40.0260372" id="Fill-43" fill="#344D1B"></path>
                    <path d="M31.3458777,36.5132087 C31.1241346,36.3487805 30.8610496,36.2167682 30.5730655,36.2167682 C29.997567,36.2167682 29.5456245,36.6607242 29.5456245,37.2442092 C29.5456245,37.8535329 29.981594,38.2810461 30.5979646,38.2810461 C30.8610496,38.2810461 31.1490338,38.1739329 31.3458777,37.9930619 L31.3458777,39.2596284 C31.0174913,39.4235867 30.6557493,39.4982841 30.2940074,39.4982841 C29.0443536,39.4982841 28,38.5680906 28,37.2940074 C28,35.93818 29.0358973,35 30.3597787,35 C30.7050778,35 31.0503769,35.0822141 31.3458777,35.2466422 L31.3458777,36.5132087" id="Fill-44" fill="#344D1B"></path>
                    <path d="M32.5785101,37.2531353 C32.5785101,37.7868221 32.9317957,38.198832 33.5401799,38.198832 C34.1490338,38.198832 34.5027892,37.7868221 34.5027892,37.2531353 C34.5027892,36.734482 34.1490338,36.2994521 33.5401799,36.2994521 C32.9317957,36.2994521 32.5785101,36.734482 32.5785101,37.2531353 Z M36.0808295,37.2531353 C36.0808295,38.6836601 34.8969469,39.4982841 33.5401799,39.4982841 C32.1923389,39.4982841 31,38.6921164 31,37.2531353 C31,35.8141542 32.1838826,35 33.5401799,35 C34.8969469,35 36.0808295,35.8141542 36.0808295,37.2531353 Z" id="Fill-45" fill="#344D1B"></path>
                    <path d="M38.4962961,35.6821419 L38.5127389,35.6821419 C38.8585078,35.1728844 39.2775646,35 39.8610496,35 C40.9956038,35 41.4480161,35.7154973 41.4480161,36.7518644 L41.4480161,39.3573457 L39.95172,39.3573457 L39.95172,37.3019939 C39.95172,36.8998497 40.0170215,36.1918691 39.2775646,36.1918691 C38.6691805,36.1918691 38.4962961,36.6447512 38.4962961,37.1709212 L38.4962961,39.3573457 L37,39.3573457 L37,35.139529 L38.4962961,35.139529 L38.4962961,35.6821419" id="Fill-46" fill="#344D1B"></path>
                    <path d="M45.0668197,36.2256943 C44.8361505,36.1021383 44.5162203,36.0199243 44.2611218,36.0199243 C44.0882374,36.0199243 43.7922667,36.093682 43.7922667,36.3074386 C43.7922667,36.594953 44.2611218,36.6367647 44.4664221,36.6766972 C45.1654766,36.8162262 45.6916466,37.1455523 45.6916466,37.9272907 C45.6916466,39.0369457 44.6801787,39.4982841 43.7020661,39.4982841 C43.1016685,39.4982841 42.5097272,39.3244601 42,39.0129862 L42.5426129,37.9681628 C42.84657,38.1823892 43.356767,38.3961458 43.7264955,38.3961458 C43.9158227,38.3961458 44.1953506,38.3054754 44.1953506,38.075276 C44.1953506,37.7468895 43.7264955,37.7299769 43.2576404,37.6064209 C42.7892551,37.4833347 42.3204,37.2531353 42.3204,36.4967659 C42.3204,35.4608686 43.2576404,35 44.1789077,35 C44.6557493,35 45.1325909,35.0746974 45.5685604,35.2710715 L45.0668197,36.2256943" id="Fill-47" fill="#344D1B"></path>
                    <polyline id="Fill-48" fill="#344D1B" points="48.981594 39.4839133 47.4852979 39.4839133 47.4852979 36.4997775 47 36.4997775 47 35.2660967 47.4852979 35.2660967 47.4852979 34 48.981594 34 48.981594 35.2660967 49.828164 35.2660967 49.828164 36.4997775 48.981594 36.4997775 48.981594 39.4839133"></polyline>
                    <path d="M51.4962961,36.7488527 L51.5122691,36.7488527 C51.8002532,36.2301994 52.2940074,36 52.8774924,36 L53.1650068,36 L53.1650068,37.4389811 C52.9597065,37.3234116 52.7628625,37.2994521 52.5317235,37.2994521 C51.7015963,37.2994521 51.4962961,37.8495817 51.4962961,38.5735353 L51.4962961,40.2751316 L50,40.2751316 L50,36.057315 L51.4962961,36.057315 L51.4962961,36.7488527" id="Fill-49" fill="#344D1B"></path>
                    <path d="M55.4967659,36 L55.4967659,38.2540749 C55.4967659,38.7877617 55.6287782,39.1659464 56.2451488,39.1659464 C56.8619892,39.1659464 56.9930619,38.7877617 56.9930619,38.2540749 L56.9930619,36 L58.4898278,36 L58.4898278,38.5401799 C58.4898278,39.9307721 57.5112455,40.3587551 56.2451488,40.3587551 C54.9790521,40.3587551 54,39.9307721 54,38.5401799 L54,36 L55.4967659,36" id="Fill-50" fill="#344D1B"></path>
                    <path d="M62.3463475,36.5132087 C62.1246044,36.3487805 61.8615194,36.2167682 61.5730655,36.2167682 C60.9980368,36.2167682 60.5456245,36.6607242 60.5456245,37.2442092 C60.5456245,37.8535329 60.981594,38.2810461 61.5984344,38.2810461 C61.8615194,38.2810461 62.1490338,38.1739329 62.3463475,37.9930619 L62.3463475,39.2596284 C62.0174913,39.4235867 61.6562191,39.4982841 61.2940074,39.4982841 C60.0443536,39.4982841 59,38.5680906 59,37.2940074 C59,35.93818 60.0363671,35 61.3597787,35 C61.7050778,35 62.0503769,35.0822141 62.3463475,35.2466422 L62.3463475,36.5132087" id="Fill-51" fill="#344D1B"></path>
                    <polyline id="Fill-52" fill="#344D1B" points="64.9811242 39.4839133 63.4848281 39.4839133 63.4848281 36.4997775 63 36.4997775 63 35.2660967 63.4848281 35.2660967 63.4848281 34 64.9811242 34 64.9811242 35.2660967 65.8286338 35.2660967 65.8286338 36.4997775 64.9811242 36.4997775 64.9811242 39.4839133"></polyline>
                    <path d="M66.0906704,39.6757825 L67.5860269,39.6757825 L67.5860269,35.4579658 L66.0906704,35.4579658 L66.0906704,39.6757825 Z M67.677167,33.8385835 C67.677167,34.2985125 67.2985125,34.677167 66.8381137,34.677167 C66.3781847,34.677167 66,34.2985125 66,33.8385835 C66,33.3777149 66.3781847,33 66.8381137,33 C67.2985125,33 67.677167,33.3777149 67.677167,33.8385835 Z" id="Fill-53" fill="#344D1B"></path>
                    <path d="M69.5780403,37.2531353 C69.5780403,37.7868221 69.9327353,38.198832 70.5411194,38.198832 C71.1495036,38.198832 71.5027892,37.7868221 71.5027892,37.2531353 C71.5027892,36.734482 71.1495036,36.2994521 70.5411194,36.2994521 C69.9327353,36.2994521 69.5780403,36.734482 69.5780403,37.2531353 Z M73.0812993,37.2531353 C73.0812993,38.6836601 71.8974167,39.4982841 70.5411194,39.4982841 C69.1923389,39.4982841 68,38.6921164 68,37.2531353 C68,35.8141542 69.1838826,35 70.5411194,35 C71.8974167,35 73.0812993,35.8141542 73.0812993,37.2531353 Z" id="Fill-54" fill="#344D1B"></path>
                    <path d="M75.4948867,35.6821419 L75.5127389,35.6821419 C75.8570984,35.1728844 76.276625,35 76.8610496,35 C77.9956038,35 78.4475463,35.7154973 78.4475463,36.7518644 L78.4475463,39.3573457 L76.9503106,39.3573457 L76.9503106,37.3019939 C76.9503106,36.8998497 77.0165517,36.1918691 76.276625,36.1918691 C75.6682409,36.1918691 75.4948867,36.6447512 75.4948867,37.1709212 L75.4948867,39.3573457 L74,39.3573457 L74,35.139529 L75.4948867,35.139529 L75.4948867,35.6821419" id="Fill-55" fill="#344D1B"></path>
                    <path d="M85.2566167,37.0205029 C85.182859,36.6174191 84.8126608,36.354334 84.4095769,36.354334 C83.9740773,36.354334 83.6123354,36.5845334 83.521665,37.0205029 L85.2566167,37.0205029 Z M84.1634045,34.8989101 L83.4967659,34.4136122 L84.6557493,33 L85.5690302,33.656773 L84.1634045,34.8989101 Z M86.6462694,37.8839855 L83.4967659,37.8839855 C83.4967659,38.4914301 83.8171658,38.8212259 84.434476,38.8212259 C84.7553458,38.8212259 84.9855452,38.7141127 85.1495036,38.4341151 L86.5880149,38.4341151 C86.4738548,38.9269297 86.1774143,39.290081 85.7907733,39.5277971 C85.4046021,39.7664528 84.9272907,39.8820223 84.4419928,39.8820223 C83.0448234,39.8820223 82,39.0922975 82,37.6368735 C82,36.2312478 82.9630791,35.3837382 84.3353494,35.3837382 C85.7992296,35.3837382 86.6462694,36.288093 86.6462694,37.7270741 L86.6462694,37.8839855 Z" id="Fill-56" fill="#344D1B"></path>
                    <path d="M90.3463475,36.5132087 C90.1250742,36.3487805 89.8610496,36.2167682 89.5735353,36.2167682 C88.9980368,36.2167682 88.5465641,36.6607242 88.5465641,37.2442092 C88.5465641,37.8535329 88.981594,38.2810461 89.5989042,38.2810461 C89.8610496,38.2810461 90.1490338,38.1739329 90.3463475,37.9930619 L90.3463475,39.2596284 C90.017961,39.4235867 89.6562191,39.4982841 89.2935376,39.4982841 C88.043414,39.4982841 87,38.5680906 87,37.2940074 C87,35.93818 88.0363671,35 89.3597787,35 C89.7055476,35 90.0503769,35.0822141 90.3463475,35.2466422 L90.3463475,36.5132087" id="Fill-57" fill="#344D1B"></path>
                    <path d="M92.5785101,37.2531353 C92.5785101,37.7868221 92.9327353,38.198832 93.5411194,38.198832 C94.1499734,38.198832 94.503259,37.7868221 94.503259,37.2531353 C94.503259,36.734482 94.1499734,36.2994521 93.5411194,36.2994521 C92.9327353,36.2994521 92.5785101,36.734482 92.5785101,37.2531353 Z M96.0822389,37.2531353 C96.0822389,38.6836601 94.8974167,39.4982841 93.5411194,39.4982841 C92.1928087,39.4982841 91,38.6921164 91,37.2531353 C91,35.8141542 92.1843524,35 93.5411194,35 C94.8974167,35 96.0822389,35.8141542 96.0822389,37.2531353 Z" id="Fill-58" fill="#344D1B"></path>
                    <polygon id="Fill-59" fill="#344D1B" points="97 39.8242376 98.4958263 39.8242376 98.4958263 33 97 33"></polygon>
                    <path d="M100.57898,37.2531353 C100.57898,37.7868221 100.932735,38.198832 101.541119,38.198832 C102.149504,38.198832 102.502789,37.7868221 102.502789,37.2531353 C102.502789,36.734482 102.149504,36.2994521 101.541119,36.2994521 C100.932735,36.2994521 100.57898,36.734482 100.57898,37.2531353 Z M104.081769,37.2531353 C104.081769,38.6836601 102.896947,39.4982841 101.541119,39.4982841 C100.192339,39.4982841 99,38.6921164 99,37.2531353 C99,35.8141542 100.183883,35 101.541119,35 C102.896947,35 104.081769,35.8141542 104.081769,37.2531353 Z" id="Fill-60" fill="#344D1B"></path>
                    <path d="M105.546094,37.2197799 C105.546094,37.7544062 105.89938,38.1650068 106.507764,38.1650068 C107.116148,38.1650068 107.469434,37.7544062 107.469434,37.2197799 C107.469434,36.7020661 107.116148,36.2665665 106.507764,36.2665665 C105.89938,36.2665665 105.546094,36.7020661 105.546094,37.2197799 Z M108.917341,38.9462753 C108.917341,40.7399514 108.028959,41.4629655 106.475348,41.4629655 C105.504752,41.4629655 104.2053,40.9616945 104.074228,39.8515697 L105.751864,39.8515697 C105.792267,39.9986154 105.89938,40.1057286 106.031392,40.1724395 C106.162465,40.2377409 106.318907,40.2701568 106.457966,40.2701568 C107.264133,40.2701568 107.420575,39.7449263 107.420575,39.0623146 L107.420575,38.8645311 C107.033934,39.2511721 106.639307,39.4395598 106.079781,39.4395598 C104.84704,39.4395598 104,38.503259 104,37.2864907 C104,36.0523401 104.871469,35 106.162465,35 C106.655749,35 107.108162,35.1644281 107.404602,35.5848944 L107.420575,35.5848944 L107.420575,35.139529 L108.917341,35.139529 L108.917341,38.9462753 Z" id="Fill-61" fill="#344D1B"></path>
                    <path d="M110.09067,39.6757825 L111.586027,39.6757825 L111.586027,35.4579658 L110.09067,35.4579658 L110.09067,39.6757825 Z M111.677167,33.8385835 C111.677167,34.2985125 111.298513,34.677167 110.838584,34.677167 C110.378185,34.677167 110,34.2985125 110,33.8385835 C110,33.3777149 110.378185,33 110.838584,33 C111.298513,33 111.677167,33.3777149 111.677167,33.8385835 Z" id="Fill-62" fill="#344D1B"></path>
                    <path d="M113.546094,37.2531353 C113.546094,37.7868221 113.89938,38.198832 114.507764,38.198832 C115.116618,38.198832 115.469434,37.7868221 115.469434,37.2531353 C115.469434,36.734482 115.116618,36.2994521 114.507764,36.2994521 C113.89938,36.2994521 113.546094,36.734482 113.546094,37.2531353 Z M116.917341,41.4629655 L115.420575,41.4629655 L115.420575,38.9547316 C115.108162,39.3244601 114.598434,39.4982841 114.113606,39.4982841 C112.855496,39.4982841 112,38.4783598 112,37.2620614 C112,36.0603266 112.879456,35 114.129579,35 C114.623803,35 115.140577,35.196844 115.404602,35.6173102 L115.420575,35.6173102 L115.420575,35.139529 L116.917341,35.139529 L116.917341,41.4629655 Z" id="Fill-63" fill="#344D1B"></path>
                    <path d="M119.495826,36 L119.495826,38.2540749 C119.495826,38.7877617 119.626899,39.1659464 120.243739,39.1659464 C120.86105,39.1659464 120.992592,38.7877617 120.992592,38.2540749 L120.992592,36 L122.488418,36 L122.488418,38.5401799 C122.488418,39.9307721 121.510776,40.3587551 120.243739,40.3587551 C118.977643,40.3587551 118,39.9307721 118,38.5401799 L118,36 L119.495826,36" id="Fill-64" fill="#344D1B"></path>
                    <path d="M126.256617,36.6367647 C126.181919,36.2336808 125.812191,35.9705958 125.409577,35.9705958 C124.973607,35.9705958 124.611866,36.2007952 124.521195,36.6367647 L126.256617,36.6367647 Z M127.646269,37.5002473 L124.495826,37.5002473 C124.495826,38.1076918 124.817166,38.4374877 125.434476,38.4374877 C125.754876,38.4374877 125.985075,38.3303745 126.149504,38.0503769 L127.588015,38.0503769 C127.472915,38.5431915 127.176945,38.9063428 126.790304,39.1440589 C126.404602,39.3827146 125.926821,39.4982841 125.441993,39.4982841 C124.044823,39.4982841 123,38.7085592 123,37.2531353 C123,35.8475096 123.962609,35 125.33488,35 C126.79923,35 127.646269,35.9043548 127.646269,37.3433359 L127.646269,37.5002473 Z" id="Fill-65" fill="#344D1B"></path>
                    <path d="M139.979764,9.98988221 C139.979764,13.2977066 137.298646,15.9797644 133.989882,15.9797644 C130.682058,15.9797644 128,13.2977066 128,9.98988221 C128,6.68205785 130.682058,4 133.989882,4 C137.298646,4 139.979764,6.68205785 139.979764,9.98988221" id="Fill-66" fill="#82BE43"></path>
                    <path d="M131.586497,9.64408851 C131.444149,9.56986095 131.30462,9.53274717 131.16791,9.53274717 C131.09744,9.53274717 131.039656,9.54731081 130.995495,9.57549849 C130.951334,9.60415596 130.929724,9.64267913 130.929724,9.69059818 C130.929724,9.71643689 130.933012,9.73710786 130.940529,9.75261108 C130.947106,9.76811431 130.962609,9.78361753 130.987508,9.79771137 C131.010998,9.81180521 131.047172,9.82448967 131.093682,9.83576474 C131.140661,9.84703981 131.203144,9.86160345 131.279251,9.87851606 C131.493008,9.92126737 131.651798,9.99737411 131.757032,10.1068363 C131.862736,10.2158286 131.914883,10.3558275 131.914883,10.5268327 C131.914883,10.6546169 131.889514,10.7697166 131.837837,10.8721318 C131.786629,10.9750168 131.71569,11.0605195 131.62502,11.1305189 C131.534349,11.2000485 131.423948,11.2536051 131.296633,11.2925981 C131.16791,11.3311212 131.027911,11.3503828 130.874288,11.3503828 C130.578317,11.3503828 130.287045,11.2662896 130,11.0981031 L130.281877,10.5522016 C130.497513,10.700187 130.701873,10.7744145 130.895429,10.7744145 C130.966368,10.7744145 131.025092,10.7589113 131.069722,10.7269653 C131.115762,10.6959588 131.138782,10.6560263 131.138782,10.6076374 C131.138782,10.5794497 131.135024,10.55596 131.127507,10.537638 C131.12046,10.5188462 131.105897,10.5019336 131.082877,10.4864304 C131.060796,10.4704574 131.026971,10.4563635 130.98281,10.4436791 C130.93865,10.4309946 130.880865,10.4173706 130.810396,10.4032767 C130.57174,10.3544181 130.404493,10.2830093 130.309125,10.187641 C130.213757,10.0927424 130.166307,9.96119992 130.166307,9.79301343 C130.166307,9.67086681 130.188857,9.56093485 130.233958,9.46274776 C130.279998,9.36456067 130.344829,9.28140702 130.430332,9.21328679 C130.515835,9.14469676 130.61825,9.09207976 130.739457,9.05543577 C130.860664,9.01832199 130.994555,9 131.14348,9 C131.384485,9 131.619382,9.04650967 131.847233,9.14046861 L131.586497,9.64408851" id="Fill-67" fill="#FFFFFE"></path>
                    <path d="M133.745287,10.1683794 C133.745287,10.1002591 133.732603,10.0358973 133.708643,9.97435417 C133.684684,9.91328086 133.649919,9.86019407 133.603879,9.81462398 C133.559249,9.76952369 133.505692,9.73287971 133.444619,9.70610141 C133.383076,9.67885332 133.316834,9.66522927 133.246365,9.66522927 C133.177305,9.66522927 133.113883,9.67791373 133.054219,9.70375244 C132.994555,9.72959114 132.942408,9.76482574 132.898247,9.81039583 C132.854557,9.85596591 132.818382,9.90952251 132.792074,9.97012602 C132.764356,10.0311993 132.751671,10.096031 132.751671,10.1641512 C132.751671,10.2327412 132.764356,10.2966333 132.789255,10.3562973 C132.815094,10.4159612 132.850798,10.4681084 132.896838,10.5122691 C132.941469,10.55596 132.994555,10.5916644 133.056098,10.6184427 C133.117642,10.6456908 133.182003,10.658845 133.249654,10.658845 C133.318714,10.658845 133.383076,10.6466304 133.442739,10.6207917 C133.502403,10.594953 133.553611,10.5597183 133.597772,10.5141483 C133.641463,10.4685782 133.677637,10.4159612 133.704885,10.3562973 C133.731663,10.2966333 133.745287,10.2341506 133.745287,10.1683794 Z M132.772812,12.3482267 L132,12.3482267 L132,9.06812023 L132.772812,9.06812023 L132.772812,9.31147388 C132.93771,9.10382463 133.161802,9 133.446028,9 C133.602939,9 133.749046,9.03053665 133.883877,9.09160996 C134.018708,9.15268327 134.136156,9.23583693 134.235283,9.34154073 C134.335349,9.44630495 134.412396,9.57033075 134.468301,9.71220874 C134.523267,9.85408673 134.550985,10.00677 134.550985,10.1683794 C134.550985,10.3309283 134.523267,10.4812626 134.468301,10.6207917 C134.412396,10.7598509 134.336289,10.8824673 134.238102,10.9872315 C134.139915,11.0929353 134.023406,11.1751494 133.890454,11.2352831 C133.756562,11.294947 133.611396,11.3245441 133.455424,11.3245441 C133.182003,11.3245441 132.954623,11.2305852 132.772812,11.0431371 L132.772812,12.3482267 Z" id="Fill-68" fill="#FFFFFE"></path>
                    <path d="M135,9.04697947 L135.772342,9.04697947 L135.772342,9.40543281 C135.855026,9.27482989 135.956032,9.17429383 136.07536,9.10476421 C136.194688,9.03476481 136.334217,9 136.492538,9 C136.512739,9 136.534819,9 136.559718,9 C136.583678,9 136.610926,9.00328856 136.642402,9.0084563 L136.642402,9.74650375 C136.540457,9.69529613 136.429585,9.66992722 136.310257,9.66992722 C136.130326,9.66992722 135.996435,9.72301402 135.906234,9.82965741 C135.817443,9.9363008 135.772342,10.0918028 135.772342,10.2971031 L135.772342,11.2352831 L135,11.2352831 L135,9.04697947" id="Fill-69" fill="#FFFFFE"></path>
                    <polygon id="Fill-70" fill="#FFFFFE" points="137 11.5403727 137.772812 11.5403727 137.772812 8 137 8"></polygon>
                </g>
            </g>
        </g>
    </g>
</svg>